<svg xmlns="http://www.w3.org/2000/svg" xmlns:xlink="http://www.w3.org/1999/xlink" width="615.457" height="708.153" viewBox="0 0 615.457 708.153"><defs><style>.a{opacity:0.3;}.a,.d,.e,.h,.m{isolation:isolate;}.b{opacity:0.31;fill:url(#a);}.c{fill:url(#b);}.d,.l{fill:none;stroke:#707070;stroke-miterlimit:10;}.d{opacity:0.37;}.d,.e,.h,.m{mix-blend-mode:multiply;}.e,.m{opacity:0.5;}.f{fill:url(#c);}.g{fill:url(#d);}.h{opacity:0.87;fill:url(#e);}.i{fill:url(#f);}.j{fill:url(#g);}.k{fill:url(#h);}.m{fill:url(#i);}.n,.s{fill:#fff;}.n{opacity:0;}.o{fill:#efefef;}.p{fill:#202c44;}.q{fill:#212c43;}.r{fill:#293856;}.t{fill:#293857;}.u{fill:#fee4d3;}.v{fill:#2a3857;}.w{fill:#314670;}.x{fill:#324671;}.y{fill:#ffe5d4;}.z{fill:#1f2b43;}.aa{fill:#ffbfa7;}.ab{fill:#ffbea6;}.ac{fill:#2c3c59;}.ad{fill:#2a3958;}.ae{fill:#cdcece;}.af{fill:#2b344a;}.ag{fill:#fbfbfc;}.ah{fill:#fdfdfc;}.ai{fill:#1e2a42;}.aj{fill:#293756;}.ak{fill:#fdfdfd;}.al{fill:#e8eef0;}.am{fill:#202b43;}.an{fill:#30446f;}</style><linearGradient id="a" x1="-1.256" y1="0.138" x2="-0.269" y2="0.138" gradientUnits="objectBoundingBox"><stop offset="0" stop-color="#662d90"/><stop offset="1" stop-color="#00adee"/></linearGradient><linearGradient id="b" x1="-1.305" y1="-0.001" x2="-0.329" y2="-0.001" xlink:href="#a"/><linearGradient id="c" x1="1.052" y1="0.756" x2="0.389" y2="-0.201" xlink:href="#a"/><linearGradient id="d" x1="2.767" y1="0.541" x2="3.764" y2="0.541" xlink:href="#a"/><linearGradient id="e" x1="4.726" y1="-0.241" x2="6.113" y2="-0.241" xlink:href="#a"/><linearGradient id="f" x1="2.175" y1="4.155" x2="3.956" y2="4.155" xlink:href="#a"/><linearGradient id="g" x1="0.268" y1="19.53" x2="-0.847" y2="20.803" xlink:href="#a"/><linearGradient id="h" x1="5.295" y1="2.399" x2="6.292" y2="2.399" xlink:href="#a"/><linearGradient id="i" x1="4.288" y1="-0.294" x2="5.283" y2="-0.294" xlink:href="#a"/></defs><g transform="translate(-15.488)"><g class="a" transform="translate(285.25 78.985) rotate(45)"><g transform="translate(0 0)"><path class="b" d="M398.229,247.491c22.132-17.994,42.285-40.485,48.875-68.263C461.319,119.512,408.868,64,349.647,78.015c-20.018,4.746-40.485,12.371-60.593,8.3-19.793-4-35.582-18.466-51.1-31.489-26.428-22.087-55.8-41.745-89.023-50.517C75.494-15.056,1.855,32.671.034,110.965-1.024,156.2,23.065,197.986,50.505,232.421c37.7,47.233,91.114,77.259,151.325,82.59C271.622,321.129,344.811,290.833,398.229,247.491Z" transform="translate(45.442 35.001)"/><path class="c" d="M400.928,193.8h2.114c9,.427,18.286.495,26.743-2.677,34.39-12.865,17.836-63.27,1.417-84.052a80.678,80.678,0,0,0-81.578-29.059c-20,4.746-40.485,12.371-60.571,8.3-19.793-4-35.582-18.466-51.124-31.489-26.405-22.087-55.8-41.745-89-50.517C75.494-15.056,1.833,32.671.034,110.965-1.024,156.2,23.065,197.986,50.505,232.421c21.255,26.63,76.292,82.77,115.158,65.046,13.338-6.1,22.829-18.263,30.7-30.634,11.246-17.768,20.558-36.932,33.378-53.666s30.206-31.264,50.967-34.93c18.376-3.261,37.022,2.249,55.217,6.433a381.672,381.672,0,0,0,65,9.132Z" transform="translate(53.786 59.607)"/><path class="d" d="M398.184,247.423c22.109-17.993,42.262-40.485,48.875-68.263,14.192-59.716-38.236-115.226-97.48-101.213-20,4.746-40.485,12.371-60.571,8.3-19.793-4-35.582-18.466-51.124-31.489C211.5,32.716,182.128,13.058,148.93,4.309,75.494-15.056,1.833,32.671.034,110.965-1.024,156.2,23.065,197.986,50.505,232.421c37.7,47.233,91.092,77.259,151.3,82.59C271.623,321.084,344.811,290.765,398.184,247.423Z" transform="translate(56.53 18.11)"/><g class="e" transform="translate(7.146 68.329)"><path class="f" d="M281.129,269.493c25.776-24.539,42.937-67.3,83.22-71.974,38.416-4.5,89.45,28.879,118.6-10.256,17.431-23.369,8.254-52.833-9-73.1-14.372-16.846-34.592-26.181-54.205-35.38A183.443,183.443,0,0,1,364.349,39c-12.213-12.865-36.279-48.6-57.827-36.549-7.535,4.206-12.168,12.191-15.384,20.243-6.748,17.094-9,35.852-16.127,52.811s-21.975,32.906-40.485,33c-14.687,0-27.305-9.716-38.933-18.691A700.7,700.7,0,0,0,111.2,34.071C94.852,24.894,76.566,16.077,58.123,19.429,30.818,24.332-2.605,59.419.161,87.871,1.263,99.117,6.594,109.733,13.206,119c16.891,23.616,42.352,40.485,57.332,65.226,21.817,36.189,18.916,85.357,47.66,116.328,26.158,28.182,58.816,20.94,92.014,10.526a189.876,189.876,0,0,0,68.555-39.361Q280,270.64,281.129,269.493Z" transform="translate(0)"/></g><path class="g" d="M11.909,54.695c10.279,7.94,25.281,9.469,35.987.742C61.5,44.191,61.549,22.306,49.876,9.711,24.64-17.482-13.8,18.078,5,47.137a30.275,30.275,0,0,0,6.9,7.557Z" transform="translate(205.066)"/><path class="h" d="M10.58,52.1c7.985,8.592,18.8,11.246,25.663,3.644,8.772-9.829,7.017-31.241-2.249-44.511C13.752-17.379-10.742,14.222,5.047,44.136A38.1,38.1,0,0,0,10.58,52.1Z" transform="translate(84.377 322.048)"/><path class="i" d="M13,31.779c6.59,2.632,13.788,1.237,16.509-4.9,3.509-7.895-1.754-19.41-10.1-24.291C1.413-7.964-7.584,16.373,8,28.833A19.567,19.567,0,0,0,13,31.779Z" transform="translate(274.694 43.72)"/><path class="j" d="M5.83,27.079c4.7,4.161,11.381,5.2,15.924,1.012,5.825-5.353,5.466-16.352,0-22.852C10.081-8.841-6.338,8.3,2.524,23.232A15.565,15.565,0,0,0,5.83,27.079Z" transform="translate(4.603 204.942)"/><path class="k" d="M4.464,20.3a10.706,10.706,0,0,0,13.315.27A11.988,11.988,0,0,0,18.5,3.607C9.143-6.492-5.117,6.711,1.855,17.485A11.942,11.942,0,0,0,4.464,20.3Z" transform="translate(385.429 108.261)"/><path class="l" d="M1.892,8.619a4.5,4.5,0,0,0,5.645.112,5.061,5.061,0,0,0,.315-7.2C3.894-2.762-2.179,2.861.79,7.427A4.634,4.634,0,0,0,1.892,8.619Z" transform="translate(42.818 222.435)"/><path class="l" d="M4.878,21.928a11.561,11.561,0,0,0,14.372.247,12.955,12.955,0,0,0,.742-18.308C9.848-7-5.514,7.286,2,18.914a12.348,12.348,0,0,0,2.879,3.014Z" transform="translate(0 150.759)"/><path class="l" d="M1.892,8.609a4.5,4.5,0,0,0,5.668.135,5.106,5.106,0,0,0,.292-7.22C3.894-2.749-2.179,2.851.79,7.417A4.3,4.3,0,0,0,1.892,8.609Z" transform="translate(393.241 279.506)"/><path class="l" d="M3.094,14.067a7.445,7.445,0,0,0,9.244.2,8.345,8.345,0,0,0,.517-11.786C6.355-4.511-3.564,4.733,1.294,12.133a7.738,7.738,0,0,0,1.8,1.934Z" transform="translate(293.908 10.083)"/><path class="l" d="M1.894,8.622a4.5,4.5,0,0,0,5.645.112,5.083,5.083,0,0,0,.315-7.2C3.873-2.759-2.177,2.841.792,7.43a5.037,5.037,0,0,0,1.1,1.192Z" transform="translate(217.511 393.729)"/><path class="l" d="M1.892,8.622a4.5,4.5,0,0,0,5.646.112,5.06,5.06,0,0,0,.315-7.2C3.894-2.759-2.179,2.841.79,7.43a5.038,5.038,0,0,0,1.1,1.192Z" transform="translate(426.372 72.635)"/><path class="m" d="M124.931,14.177C94.027-5.5,51.518-6.065,23.92,21.2c-35.38,34.862-29.959,96.513,6.028,128.946,77.754,69.995,176.763-39.653,116.53-116.508a86.1,86.1,0,0,0-21.547-19.456Z" transform="translate(112.535 79.068)"/></g></g><g transform="translate(84.983)"><path class="n" d="M220.286,185.779h472.1V893.932h-472.1ZM425.9,391c.218-.883-.326-1.48-.8-2.1-1.959-2.539-3.9-5.09-5.885-7.608-.25-.318-.289-.958-1.029-.829l-2.669,3.448a12.221,12.221,0,0,0-1.06.88c-2,2.068-3.985,4.155-5.973,6.234-.787.853-1.564,1.713-2.362,2.555a4.282,4.282,0,0,1-3.639,1.232,7.255,7.255,0,0,1-2.8-1.131c-.824-.427-1.641-.865-2.461-1.3-.189-.506-.415-1-.564-1.518-.478-1.644-.883-3.311-1.4-4.943a78.465,78.465,0,0,0-6.068-14.368c-.713-2.188-2.252-3.906-3.249-6.012-.707.062-1.332.067-1.936.181-1.156.218-2.3.508-3.45.75a239.776,239.776,0,0,0-30.817,8.607c-2.215.784-4.381,1.731-6.51,2.729a29.064,29.064,0,0,0-8.387,6,48.487,48.487,0,0,0-6.076,7.8,96.346,96.346,0,0,0-8.457,15.76c-2.83,6.9-6.085,13.611-8.652,20.621-1.106,3.017-2.578,5.9-3.831,8.865q-1.971,4.664-3.837,9.371c-.928,2.335-1.8,4.692-2.67,7.049-.846,2.286-1.663,4.572-2.487,6.857-1.7,4.727-3.36,9.47-5.107,14.18-2.73,7.36-5.506,14.694-7.553,22.3a42.035,42.035,0,0,0-1.362,13.53,19.309,19.309,0,0,0,3.483,10.11c1.524,2.192,3.11,4.347,4.614,6.555q18.856,27.655,37.695,55.325c.306.448.665.861,1,1.29.226.4.421.824.68,1.2q3.087,4.507,6.2,9c.3.435.677.828,1.018,1.241a8.756,8.756,0,0,1-.073,3.493,9.223,9.223,0,0,0,2.027,7.031c.35.4.653.841.973,1.264a14.18,14.18,0,0,0,6.3,7.816,17.462,17.462,0,0,0,2.3,1.146,1.794,1.794,0,0,1,.913,1.277c-.018,4.636-.074,9.272-.048,13.906q.109,18.5.274,37.008c.056,7.465.09,14.931.163,22.4.127,12.965.3,25.931.409,38.9.146,16.654.2,33.317.408,49.974.079,6.282.479,12.559.75,18.838.065,1.491.242,2.976.286,4.463a2.012,2.012,0,0,0,1.165,1.91c.7.357,1.415.663,2.13.989-.327,2.885-.59,5.779-1.007,8.651-.8,5.522-1.92,10.957-4.482,16A24.54,24.54,0,0,0,349.6,838c-.358,2.842.584,3.975,3.374,4.182,1.485.109,2.977.164,4.463.195q14,.294,28.006.553c3.216.054,6.435.014,9.651-.03,1.2-.017,1.566-.335,1.732-1.483a21.393,21.393,0,0,0-.013-7.491,23.1,23.1,0,0,0-5.7-11.175,6.022,6.022,0,0,1-1.572-3.32c-.479-3.1-1.146-6.167-1.673-9.26a27.2,27.2,0,0,1-.185-3.022c2.148-.117,2.447-.332,2.991-2.231.151-.528.257-1.07.368-1.608,1.306-6.319,1.943-12.735,2.792-19.121.569-4.284,1.065-8.577,1.585-12.869.721-5.929,1.46-11.856,2.143-17.788.568-4.918,1.058-9.846,1.6-14.766.71-6.406,1.449-12.806,2.16-19.212.7-6.327,1.352-12.66,2.083-18.983.841-7.259,1.7-14.517,2.637-21.769.987-7.636,2.089-15.257,3.114-22.888.734-5.451,1.432-10.907,2.132-16.363.579-4.521,1.117-9.046,1.708-13.566.673-5.142,1.39-10.278,2.068-15.419.371-2.8.709-5.612,1.068-8.418.049-.379.062-.8.647-.9.369,3.031.762,6.056,1.1,9.086q.822,7.261,1.591,14.531.843,7.852,1.663,15.709c.55,5.315.974,10.646,1.633,15.948.847,6.792,1.306,13.606,1.73,20.433.327,5.256.679,10.513,1.089,15.761.521,6.74,1.117,13.473,1.665,20.211q.814,9.988,1.6,19.979,1.171,14.8,2.33,29.617c.239,3.057.478,6.112.686,9.17.293,4.314.535,8.63.84,12.942.39,5.488.829,10.973,1.236,16.459a3.033,3.033,0,0,0,1.929,2.955,3.951,3.951,0,0,1,.9.71,13.2,13.2,0,0,0-.3,1.615,6.386,6.386,0,0,1-1.174,3.232,17.528,17.528,0,0,0-1.85,3.779A33.054,33.054,0,0,0,432,824.983c.04,4.713.638,9.378,1.083,14.057.159,1.671.481,1.922,2.236,2.059.233.018.469.02.7.036,5.007.337,10.019.388,15.034.3,1.017-.017,2.032-.109,3.048-.195,2.4-.21,2.511-.181,2.736-2.822.047-.544-.014-1.1.01-1.645.018-.429-.23-.92.379-1.365a16.555,16.555,0,0,0,6.87,4.119,4.447,4.447,0,0,0,4.639,2.914h94.314c.55,0,1.1.021,1.65-.009a4.253,4.253,0,0,0,4.43-4.265c.109-3.141.139-6.295-.012-9.433a8.055,8.055,0,0,0-5.931-7.665,11.511,11.511,0,0,0-3.024-.32c-5.109-.041-10.217-.037-15.325-.049,0-.942-.083-1.889,0-2.822.218-2.338.553-4.666.784-7,.346-3.509.641-7.023.961-10.534l.938-10.3q.475-5.267.94-10.535.475-5.386.935-10.776c.327-3.826.653-7.651.951-11.48.218-2.893.386-5.789.577-8.685.016-.236.03-.47.052-.705.267-2.728.567-5.453.793-8.185s.377-5.475.561-8.215a6.451,6.451,0,0,1,.062-.7,54.759,54.759,0,0,0,.911-6.99c.1-1.877.327-3.747.506-5.619.258-2.649.6-5.294.768-7.951.208-3.286.077-6.585.451-9.876.263-2.33.239-4.692.435-7.041.293-3.511.145-7.05.536-10.575.362-3.265.419-6.573.613-9.861.009-.157.025-.312.038-.469.269-3.048.572-6.085.8-9.13.231-3.129.386-6.262.576-9.394.01-.157.032-.312.046-.469.272-3.2.566-6.4.81-9.6.218-2.815.342-5.635.573-8.449s.565-5.611.8-8.42c.339-3.982.624-7.969.944-11.954.308-3.827.653-7.652.942-11.481.218-2.892.392-5.79.585-8.684.016-.236.028-.471.051-.705.261-2.572.55-5.14.784-7.713.332-3.668.627-7.339.934-11.009.32-3.827.653-7.652.948-11.481.218-2.893.39-5.789.581-8.685.016-.235.026-.47.049-.705.266-2.57.569-5.138.789-7.712.235-2.734.377-5.476.584-8.214q.223-2.93.519-5.854c.243-2.416.568-4.824.774-7.242.245-2.891.4-5.79.594-8.684.016-.236.04-.47.065-.7.258-2.414.55-4.825.762-7.243.23-2.576.376-5.162.581-7.74.15-1.874.306-3.751.521-5.619.406-3.5.858-7,1.293-10.494.153-1.243.326-2.485.474-3.729.21-1.791.394-3.583.6-5.375.287-2.488.588-4.977.883-7.465,1.431-.636,2.852-1.3,4.294-1.9a125.214,125.214,0,0,0,13.267-6.03,4.967,4.967,0,0,0,2.739-3.83,66.994,66.994,0,0,0,.427-10.334,3.99,3.99,0,0,0-.077-.7A5.2,5.2,0,0,0,588.8,441.2a15.113,15.113,0,0,0-3.125.993c-2.738,1.173-5.425,2.463-8.164,3.629-5.7,2.425-11.3,5.078-17.139,7.163q-3.764,1.344-7.48,2.822c-5.68,2.266-11.341,4.572-17.013,6.857a3.447,3.447,0,0,1-2.254.493,18.264,18.264,0,0,0-4.957-3.876c-3.036-1.662-6.376-1.85-9.813-1.9-.078-.753-.171-1.356-.2-1.959q-.37-7.845-.72-15.689c.871-.356,1.73-.738,2.612-1.062,9.5-3.483,19.01-6.917,28.493-10.436,6.248-2.318,12.471-4.7,18.545-7.458a21.676,21.676,0,0,0,9.644-7.985,48.114,48.114,0,0,0,3.889-6.985c1.524-3.529,3.013-7.075,4.658-10.548,7.159-15.107,13.824-30.434,20.654-45.689a83.29,83.29,0,0,0,3.067-8.393,4.657,4.657,0,0,0-.831-4.629c-.678-.857-1.462-1.633-2.2-2.44A9.261,9.261,0,0,1,609.7,331.9a41.778,41.778,0,0,0,9.78-7.862,2.44,2.44,0,0,0,.767-1.875,13.851,13.851,0,0,0,3.685-4.2c.709-1.218,1.32-2.5,2.129-3.652a16.014,16.014,0,0,0,2.6-10.734,13.2,13.2,0,0,0-.584-2.738c-.065-.228-.469-.358-.718-.533a2.721,2.721,0,0,0-1.012-2.031,47.907,47.907,0,0,0-9.99-7.76,15.339,15.339,0,0,0-8.953-2.371,2.741,2.741,0,0,1-2.138-.37c.037-.311.054-.688.127-1.055.526-2.68,1.53-5.254,1.733-8.01.087-1.162.332-2.312.505-3.469.266-1.772.544-3.542.783-5.318a4.282,4.282,0,0,0-.021-1.641c-.538-1.959-1.088-3.919-1.77-5.83a4.11,4.11,0,0,0-2.49-2.369,3.1,3.1,0,0,0-4.528,1.959c-.248.653-.392,1.352-.594,2.027-.987,3.295-1.54,6.694-2.388,10.021-.907,3.555-1.513,7.184-2.677,10.682-1.06,3.186-1.878,6.455-2.786,9.687-.551,1.959-1.06,3.924-1.633,5.878a3.044,3.044,0,0,1-.6.826c-.272-.186-.462-.242-.517-.361a22.335,22.335,0,0,0-5.786-7.042c-2.461-2.2-5.241-3.657-8.738-3.26a5.179,5.179,0,0,0-3.918,2.662,2.586,2.586,0,0,0-.109,1.6,4.135,4.135,0,0,0,.544,1.294c.936,1.72,1.833,3.466,2.852,5.137,2.612,4.279,4.922,8.718,7.232,13.16,1.481,2.847,2.784,5.786,4.327,8.6l-.946.481a16.316,16.316,0,0,0-1.539,1.742c-2.559,3.863-5.078,7.755-7.619,11.636q-8.381,12.824-16.771,25.645-3.034,4.633-6.109,9.239c-1.088,1.633-2.248,3.221-3.314,4.867a3.19,3.19,0,0,1-1.549,1.353c-2.257.906-4.463,1.938-6.741,2.8a152.576,152.576,0,0,1-19.68,5.619,26.718,26.718,0,0,1-3.018.5c-3.2.36-6.41.633-9.6,1.053a9.143,9.143,0,0,1-3.708-.125,6.557,6.557,0,0,1-1.355-.9,54.446,54.446,0,0,1-4.366-5.146,6.346,6.346,0,0,1,.211-.762,7.393,7.393,0,0,0-.626-6.984,24.155,24.155,0,0,0-2.585-3.634,59.6,59.6,0,0,0-8.49-8.122,21.906,21.906,0,0,0-3.8-2.321,8.781,8.781,0,0,0-6.422-.5,6.475,6.475,0,0,0-4.85,4.938,9.6,9.6,0,0,0,.933,7.282,28.575,28.575,0,0,0,3.493,4.722,3.079,3.079,0,0,1,1.054,1.6h-.99c-.5-.218-.992-.459-1.5-.643-7.147-2.552-14.3-5.08-21.443-7.651-4.27-1.539-8.542-3.071-12.93-4.245a10.394,10.394,0,0,0-1.3-.183,8.562,8.562,0,0,0-1.053,3.223l-.147.137.062.182-.32,1.055a13.112,13.112,0,0,0-.544,1.289,62.489,62.489,0,0,0-2.385,13.136c-.218,2.571-.35,5.15-.521,7.728l-.7.589a13.164,13.164,0,0,1-1.592,1.316,2.539,2.539,0,0,1-3.533-.442,13.625,13.625,0,0,1-1.292-1.613A1.431,1.431,0,0,0,425.9,391Zm-52.052-89.178-.218,2.816c-.195.421-.4.838-.585,1.264a17.351,17.351,0,0,0-.9,2.14,15.094,15.094,0,0,0-.081,7.184,21.734,21.734,0,0,0,6.541,12.191,11.276,11.276,0,0,0,6.9,3.164,2.015,2.015,0,0,1,1.934,1.4,13.609,13.609,0,0,0,1.035,2.357,35.89,35.89,0,0,0,5.811,7.348,13.507,13.507,0,0,1,1.473,1.524,3.863,3.863,0,0,1,.424,1.062c-.021.544-.008,1.1-.071,1.647-.26,2.25-.653,4.491-.792,6.749a25.482,25.482,0,0,1-1.282,6.9,2.163,2.163,0,0,0-.049,1.8,4.716,4.716,0,0,0,2.628,1.415,2.082,2.082,0,0,0,1.024,1.511c2.637,1.822,5.246,3.69,7.946,5.415,2.57,1.644,5.243,3.129,7.866,4.691,1.144.682,2.262,1.4,3.416,2.068a2.161,2.161,0,0,0,2.963-.41c.223-.218.435-.456.637-.693.762-.886,1.482-1.822,2.3-2.657,2.916-2.968,5.87-5.9,8.8-8.856.491-.494.948-1.023,1.306-1.415-.148-1.362-.253-2.523-.418-3.675a2.621,2.621,0,0,0-.435-.794L432,353.733a17.312,17.312,0,0,0,2.1-.147,41.218,41.218,0,0,0,5.847-1.633c5.442-1.882,9.629-5.483,13.152-9.856a25.688,25.688,0,0,0,3.961-7.688,48.551,48.551,0,0,0,2.8-16.284q0-2.35.012-4.7a5.347,5.347,0,0,1,.091-1.633,13.976,13.976,0,0,0,.327-4.657c2.74-3.519,3.737-7.668,4.309-11.966.145-1.078.209-2.166.309-3.25,1.375-.292,2.782-.481,4.119-.895,4.027-1.246,6.158-4.142,6.774-8.217a11.124,11.124,0,0,0,.061-2.821c-.49-4.554-2.535-8-6.986-9.761a53.951,53.951,0,0,1-15.622-9.929c-3.662-3.2-7.1-6.668-10.644-10a74.136,74.136,0,0,0-11.136-8.673,57.742,57.742,0,0,0-5.774-3.157,21.861,21.861,0,0,0-10.994-2.076,33.717,33.717,0,0,0-20.66,8.08,39.792,39.792,0,0,0-6.139,6.271,2.369,2.369,0,0,1-.653.067,16.708,16.708,0,0,0-9.727.55,11.285,11.285,0,0,0-6.824,5.769,17.951,17.951,0,0,0-1.843,7.246c-.074,1.017-.148,2.037-.271,3.048a22.032,22.032,0,0,1-2.323,6.878c-2.177,4.507-1.708,8.8,1.948,12.283a15.7,15.7,0,0,1,3.022,3.873,48.8,48.8,0,0,1,1.823,5.323,60.273,60.273,0,0,1,.789,6.053Z" transform="translate(-220.286 -185.779)"/><ellipse class="o" cx="179.054" cy="22.314" rx="179.054" ry="22.314" transform="translate(54.424 639.579)"/><path class="p" d="M363.393,718.569,350.822,700.5l-17.875,8.253v11.39l17.285,1.572Z" transform="translate(-195.253 -71.408)"/><path class="q" d="M371.2,272.4l-1.41,6.8v9.347l-21.965,2.539-1.415-1.16,3.483-6.4-6.089-4.972,26.428-32.568,14.238-6.622,20.137.524,10.923,8.623,25.019,26.963-3.055,4.554-3.722,12.24-.246-10.975-.912-1.278-.341-1.866,2.694-4.321-8.48,2.435-.77-2.975-4.476-2.267L418.3,259l-11.078-6.612-2.554-3.339,1.244,8.262-23.375.971-2.619,2Z" transform="translate(-192.842 -173.874)"/><g transform="translate(64.459 50.553)"><path class="r" d="M450.236,358.411,422.48,332.57l-2.229,6.681,1.031,12.885-39.337-10.4-12.755-8.809-46.5,25.482L295.716,424.76l41.236-5.733,5.378,21.713-5.378,66.506-5.205,2.915s-7.684-11.864-9.19-15.2-5.893-.653-5.893-.653l-2.817,55.226,4.438,4.192,4.463,8.538,3.739,11.919,8.994,10.141,5.242,188.331,7.571,6.271,22.64-4.379,14.694-169.065,8.825-39.677,8.643.786,17.509,198.783-.574,6.791.574,6.763,29.255-3.9v-1.509l2.44-20.327,2.553-108.441h5.2l2.843-15.7-5.364-48.9-3.81-72.9-7.293-17.135-1.572-8.463L435.829,474l17.227-14.4,6.749-5.4v-44.1l7.975,3.312,26.279-3.651,13.427-5.043V360.529l-15.218-5.411-8.513.5-4.975-3.483-6.025,1.126-9.687-7.2-4.845-.524Z" transform="translate(-267.984 -203.715)"/><path class="r" d="M345.761,772.576c-.712-.326-1.434-.633-2.13-.989a2.013,2.013,0,0,1-1.161-1.888c-.044-1.491-.218-2.976-.286-4.463-.271-6.278-.67-12.555-.75-18.838-.21-16.654-.262-33.316-.408-49.974-.109-12.965-.282-25.931-.409-38.9-.073-7.465-.109-14.931-.163-22.4q-.139-18.5-.274-37.008c-.027-4.635.029-9.271.048-13.9a1.476,1.476,0,0,0,.293.032c1.019.021,2.039.061,3.058.061,11.613,0,23.226-.034,34.838.033a33.2,33.2,0,0,0,7.639-.98,6.967,6.967,0,0,0,3.965-3.13c.888-1.214.685-2.649.435-4.156a9.666,9.666,0,0,1-6.523.3,6.073,6.073,0,0,0-1.633-.086c-1.648-.01-3.295,0-4.943-.01a5.754,5.754,0,0,1-1.868-.116,9.854,9.854,0,0,0-3.483-.345q-11.77-.011-23.538,0c-2.667,0-5.333.036-8,.053-.845-.044-1.69-.132-2.535-.125a11.954,11.954,0,0,1-6.4-1.644,2.316,2.316,0,0,0-.813-.132c-.326-.422-.624-.865-.973-1.264a9.222,9.222,0,0,1-2.027-7.03,8.757,8.757,0,0,0,.073-3.493,3.97,3.97,0,0,0,.559-.967q1.45-5.913,2.842-11.838c.5-2.126.938-4.263,1.386-6.4.192-.915.377-1.836.488-2.764a49.059,49.059,0,0,1,.568-5.107c.3-1.323.288-2.638.46-3.951.242-1.851.585-3.689.863-5.537.382-2.541.726-5.09,1.121-7.629a30.094,30.094,0,0,0,.717-7.9c.158-.848.357-1.693.465-2.547.877-6.931,1.834-13.855,2.573-20.8.639-6.006,1.554-11.99,1.562-18.058,0-3.848.237-7.692.3-11.538.127-8.011.242-16.023.3-24.035.037-5.341-.024-10.683-.077-16.025a21.96,21.96,0,0,0-.3-2.8,1.062,1.062,0,0,0-.932-.925,1.163,1.163,0,0,0-1.228.871,4.973,4.973,0,0,0-.208,1.151c-.051.863-.071,1.727-.087,2.591-.1,5.574-.207,11.149-.285,16.723a7.1,7.1,0,0,1-.531,2.748c-.955,2.235-1.813,4.513-2.823,6.721q-3.429,7.489-6.966,14.928c-2.586,5.461-5.225,10.894-7.81,16.357-.6,1.266-1.055,2.6-1.524,3.777.173.406.249.629.361.834,2.3,4.2,4.624,8.381,6.908,12.588.857,1.579,1.633,3.2,2.438,4.809-.168.251-.477.5-.477.762a14.129,14.129,0,0,0,.18,3.022,11.543,11.543,0,0,1,.091,4.663,23.526,23.526,0,0,0-.346,3.953,11.484,11.484,0,0,1-.109,1.872c-.558,2.9-1.2,5.79-1.735,8.7-.98,5.363-2.03,10.712-3.374,16-.9,3.551-1.782,7.11-2.771,10.638a10.545,10.545,0,0,0-.483,3.69c-.334-.429-.693-.84-1-1.29q-18.85-27.662-37.695-55.325c-1.5-2.207-3.086-4.361-4.614-6.555a19.31,19.31,0,0,1-3.483-10.11,42.039,42.039,0,0,1,1.362-13.53c2.047-7.6,4.823-14.938,7.553-22.3,1.748-4.711,3.406-9.452,5.107-14.18.824-2.286,1.641-4.58,2.487-6.857.871-2.357,1.742-4.714,2.67-7.049q1.87-4.7,3.837-9.371c1.254-2.965,2.721-5.847,3.831-8.865,2.568-7.01,5.823-13.725,8.652-20.621a96.348,96.348,0,0,1,8.457-15.76,48.476,48.476,0,0,1,6.076-7.8,29.059,29.059,0,0,1,8.387-6c2.129-1,4.3-1.946,6.51-2.729a239.777,239.777,0,0,1,30.817-8.607c1.152-.242,2.295-.533,3.451-.75.6-.109,1.228-.119,1.936-.181,1,2.107,2.536,3.824,3.247,6.012.084,3.53-.8,7.008-.565,10.551a6.265,6.265,0,0,1-.31,1.6c-.355,1.682-.728,3.359-1.061,5.045-.529,2.679-.829,5.422-1.582,8.035-2.1,7.293-4.391,14.535-6.58,21.806-.789,2.62-1.562,5.249-2.228,7.9A102.578,102.578,0,0,0,362.2,407.1c-.238,2.089-.6,4.166-.8,6.259a22.313,22.313,0,0,0,.713,6.269,33.527,33.527,0,0,0,1.684,5.618,35.881,35.881,0,0,0,4.22,7.86c2.029,2.872,4.284,5.583,6.359,8.425a66.585,66.585,0,0,0,6.779,8.085,8.977,8.977,0,0,1,.636.7,1.174,1.174,0,0,1,.15,1.32,7.743,7.743,0,0,1-.423.842c-2.149,3.459-4.345,6.89-6.443,10.38-1.331,2.216-2.612,4.473-3.741,6.8a12,12,0,0,0-1.479,6.574,9.764,9.764,0,0,1,0,1.649,8.491,8.491,0,0,0,.487,3,19.119,19.119,0,0,0,5.1,8.325c1.734,1.7,3.483,3.374,5.35,4.945a44.333,44.333,0,0,0,9.143,6.134,4.68,4.68,0,0,0,2.487.568c.039.774.109,1.549.109,2.324.021,2.955.014,5.911.033,8.867,0,.605.072,1.207.116,1.9l3.557.158c-.483.577-1.152.364-1.759.424s-1.191.147-1.8.224a8.067,8.067,0,0,0-.159,1.071q-.013,8.373,0,16.745a5.634,5.634,0,0,0,.247,1.14,2.72,2.72,0,0,0,1,.079,11.5,11.5,0,0,1,3.959-.39,15.334,15.334,0,0,0,3.521-.1,21.716,21.716,0,0,1,4.907-.369,9.5,9.5,0,0,0,3.256-.347,1.578,1.578,0,0,1,1.85.372c.029.354.1.813.1,1.273.013,1.809,0,3.617.01,5.425a5.16,5.16,0,0,0,.086,1.639,15.078,15.078,0,0,1,.382,4.668,10.092,10.092,0,0,0,.132,2.576,13.263,13.263,0,0,1,.342,3.5c.147,3.44-.255,6.883.4,10.33.327,1.741.192,3.568.51,5.356a36.613,36.613,0,0,0,3.3,10.961,10.8,10.8,0,0,0,3.592,3.95,8.4,8.4,0,0,0,3.243,1.266,10.406,10.406,0,0,0,5.32.071,7.791,7.791,0,0,1,2.793.09c.853.069,1.7.275,2.554.278q12.379.029,24.757,0c.077.463.18.923.227,1.387.359,3.434.7,6.87,1.062,10.3.558,5.225,1.154,10.449,1.7,15.674s1.054,10.46,1.582,15.692q.871,8.659,1.753,17.316c-.1.769-.264,1.536-.3,2.309-.327,7.61-.608,15.221-.937,22.831q-.444,10.239-.958,20.472c-.455,8.862-.985,17.719-1.427,26.58-.41,8.235-.747,16.474-1.12,24.708q-.435,9.648-.889,19.3c-.133,2.824-.366,5.643-.435,8.467a3.306,3.306,0,0,1-2.286,3.2c-.633.274-1.242.6-1.861.9-1.8-.012-3.592.465-5.355.456-5.081-.023-10.175.465-15.253-.354-2.23-.359-4.463-.686-6.678-1.138-.834-.171-1.693-.218-2.54-.327a3.963,3.963,0,0,0-.9-.71,3.033,3.033,0,0,1-1.929-2.955c-.407-5.487-.847-10.972-1.237-16.46-.307-4.311-.544-8.628-.84-12.942-.208-3.058-.446-6.114-.686-9.171q-1.158-14.81-2.33-29.617-.79-9.99-1.6-19.979c-.544-6.737-1.144-13.471-1.665-20.211q-.611-7.875-1.088-15.761c-.426-6.824-.883-13.641-1.73-20.433-.66-5.3-1.089-10.633-1.633-15.948q-.81-7.858-1.663-15.709-.78-7.267-1.591-14.531c-.342-3.03-.73-6.055-1.1-9.085-.584.1-.6.519-.647.9-.359,2.806-.7,5.614-1.068,8.418-.684,5.141-1.4,10.277-2.068,15.419-.59,4.518-1.128,9.044-1.708,13.566-.7,5.455-1.4,10.912-2.132,16.363-1.025,7.631-2.127,15.253-3.114,22.888-.936,7.248-1.8,14.506-2.637,21.769-.733,6.324-1.382,12.656-2.083,18.983-.712,6.406-1.45,12.806-2.16,19.212-.544,4.921-1.035,9.849-1.6,14.766-.685,5.932-1.423,11.864-2.143,17.788-.52,4.291-1.016,8.585-1.585,12.869-.848,6.386-1.484,12.8-2.792,19.121-.109.538-.218,1.079-.368,1.608-.544,1.9-.844,2.115-2.991,2.232-1.014.04-2.031.052-3.048.129-.852.065-1.695.272-2.546.3-1.725.048-3.454.056-5.18,0-2.887-.088-5.8.352-8.654-.436a2.658,2.658,0,0,0-.7-.021,25.194,25.194,0,0,1-5.538-.808C348.786,773.312,347.276,772.931,345.761,772.576Zm19.587-235.444c1.724,0,3.453-.076,5.171.023a6.266,6.266,0,0,0,3.767-1.08,4.1,4.1,0,0,0,2.205-4.3,3.782,3.782,0,0,0-2.043-3.2c-1.908-.956-3.828-1.726-6.045-.987a6.931,6.931,0,0,1-2.1.1c-4.936.007-9.875.05-14.811-.018a21.114,21.114,0,0,0-4.384.653,3.3,3.3,0,0,0-2.648,2.408,3.608,3.608,0,0,0,1.588,3.886,10.377,10.377,0,0,0,3.911,1.524,27.012,27.012,0,0,0,6.284.521,3.206,3.206,0,0,1,1.4.1,9.3,9.3,0,0,0,3.483.356C362.527,537.141,363.938,537.131,365.348,537.132Z" transform="translate(-273.026 -203.647)"/><path class="s" d="M393.98,373.265l.737,3.993,2.7,3.256-11.242,5.222-1.782-.676-1.536-9.952Z" transform="translate(-270.361 -219.744)"/><path class="s" d="M410.079,373.265l-2.457,6.082-2.58,2.826.369,2.949,8.416,1.782,3.624-1.044.676-12.164Z" transform="translate(-268.399 -219.744)"/><path class="r" d="M398.644,335.793a8.563,8.563,0,0,1,1.052-3.223,10.4,10.4,0,0,1,1.3.183c4.388,1.178,8.66,2.709,12.93,4.245,7.141,2.571,14.3,5.1,21.443,7.651.514.183,1,.428,1.5.643.479.259.956.521,1.437.777a6.353,6.353,0,0,1,1.217.653c1.593,1.384,3.142,2.821,4.724,4.219,2.068,1.826,4.394,3.048,7.246,2.708a22.388,22.388,0,0,0,3.031-.795,12.752,12.752,0,0,1,1.285,1.23c.638.787,1.186,1.646,1.8,2.458,1.221,1.622,2.432,3.253,3.693,4.844,1.306,1.65,2.666,3.265,4.021,4.877a47.872,47.872,0,0,0,3.543,4.06,4.4,4.4,0,0,1,1.481,3.743,32.2,32.2,0,0,0,.163,3.982c.052.775.245,1.543.267,2.319.046,1.57,0,3.141.023,4.71.01.624.089,1.246.152,1.868.1.931.291,1.857.295,2.785.03,6.675.023,13.349.027,20.028-1.633.553-3.277,1.05-4.881,1.669-8.4,3.245-16.994,5.953-25.267,9.528a2.685,2.685,0,0,1-.871.053c-.208-3.245-.4-6.375-.617-9.5-.074-1.06.165-2.357-1.133-2.825-.619-.218-1.25.954-1.217,2.692.034,1.882-.038,3.764-.046,5.647-.027,6.9-.034,13.805-.073,20.706-.03,5.489-.1,10.979-.147,16.467a11.785,11.785,0,0,1-1.578.948c-1.811.746-3.661,1.4-5.473,2.143-6.015,2.474-12.017,4.981-18.033,7.455-.787.327-1.623.533-2.436.8a2,2,0,0,0-.148-.684c-1.077-1.633-2.093-3.315-3.289-4.86-1.967-2.541-3.735-5.212-5.49-7.9-.783-1.2-.712-1.571.218-2.694a74.832,74.832,0,0,0,5.527-7.272q2.478-3.85,5.1-7.6a40.292,40.292,0,0,0,4.852-9.093,31.048,31.048,0,0,0,2.153-10.5,24.045,24.045,0,0,0-.4-5.131,73.9,73.9,0,0,0-1.7-8c-.544-1.712-1.1-3.424-1.572-5.16-1.772-6.587-4.285-12.917-6.661-19.3-1.088-2.932-2.286-5.83-3.31-8.784a112.2,112.2,0,0,1-4.065-13.948,43.248,43.248,0,0,1-1.183-9.269,53.782,53.782,0,0,0-.5-6.531,5.55,5.55,0,0,0-.812-1.648l.319-1.055a.327.327,0,0,0,.095-.318Z" transform="translate(-245.204 -203.715)"/><path class="t" d="M452.6,362.728a9.169,9.169,0,0,0,3.708.123c3.192-.419,6.4-.692,9.6-1.053a26.68,26.68,0,0,0,3.018-.5,152.61,152.61,0,0,0,19.679-5.619c2.275-.859,4.483-1.891,6.741-2.8a3.192,3.192,0,0,0,1.549-1.353c1.067-1.647,2.226-3.234,3.314-4.867q3.073-4.608,6.109-9.239,8.394-12.817,16.771-25.646c2.536-3.88,5.055-7.772,7.619-11.636a16.281,16.281,0,0,1,1.539-1.742l2.9.011a13.846,13.846,0,0,1,3.7,1.439c2.127,1.161,4.3,2.237,6.408,3.429a87.1,87.1,0,0,1,9.617,5.809c.736.81,1.524,1.584,2.2,2.44a4.657,4.657,0,0,1,.831,4.629,83.28,83.28,0,0,1-3.067,8.393c-6.828,15.254-13.5,30.586-20.654,45.689-1.645,3.472-3.134,7.021-4.658,10.548a48.1,48.1,0,0,1-3.889,6.985A21.675,21.675,0,0,1,516,395.763c-6.076,2.759-12.3,5.14-18.546,7.458-9.483,3.519-18.995,6.956-28.493,10.436-.882.327-1.742.706-2.612,1.062-.023-1.178-.053-2.357-.067-3.535a20,20,0,0,0-.086-4.231,31.181,31.181,0,0,1-.384-6.324,13.71,13.71,0,0,0-.07-3.054c-.589-2.177-.319-4.37-.41-6.557-.029-.7-.073-1.408-.143-2.108-.091-.93-.269-1.85-.312-2.786-.086-1.8.193-3.618-.455-5.364a6.705,6.705,0,0,0-2.014-5.541c-.31-.35-.527-.783-.819-1.15-1.6-2.019-3.193-4.051-4.839-6.037-1.25-1.505-2.588-2.939-3.856-4.426A2.489,2.489,0,0,1,452.6,362.728Z" transform="translate(-233.125 -211.307)"/><path class="u" d="M368.664,329.11a3.862,3.862,0,0,0-.425-1.062,13.494,13.494,0,0,0-1.473-1.524,35.9,35.9,0,0,1-5.811-7.348,13.618,13.618,0,0,1-1.035-2.357,2.015,2.015,0,0,0-1.934-1.4,11.275,11.275,0,0,1-6.9-3.164,21.734,21.734,0,0,1-6.542-12.191,15.1,15.1,0,0,1,.081-7.184,17.348,17.348,0,0,1,.9-2.14c.186-.425.39-.842.584-1.264.615.418,1.177.147,1.758-.109a7.772,7.772,0,0,1,7.625.6,14.8,14.8,0,0,1,5.975,6.474c.619,1.35,1.089,2.768,1.612,4.161.469,1.247.88,2.518,1.39,3.749a6.324,6.324,0,0,0,2.264,2.945,2.012,2.012,0,0,0,3.249-.98,10.163,10.163,0,0,0,.515-2.756c.083-1.329.049-2.668.009-4q-.255-8.235-.55-16.466a8.3,8.3,0,0,0-.2-1.146l-.051-6.006c.624-.7.27-1.586.435-2.374.487-.249.98-.491,1.46-.748a16.537,16.537,0,0,0,6.326-5.827,17.127,17.127,0,0,0,2.748-9.1c.835-.448,1.9-.218,2.653-.911a.774.774,0,0,1,.173-.153,34.494,34.494,0,0,1,16.909-2.594,19.78,19.78,0,0,1,8.345,2.792c1.048.624,2.1,1.253,3.149,1.869.531.31,1.077.6,1.615.9q2.342,2.574,4.68,5.15a.854.854,0,0,0,.923.506l.023.013a4.463,4.463,0,0,0,2,2.864,12.661,12.661,0,0,0,3.569,3.763c-.348.806-1.066.435-1.625.477a12.953,12.953,0,0,0-9.868,5.2,7.488,7.488,0,0,0-.9,1.64,1.22,1.22,0,0,0,.446,1.468,1.269,1.269,0,0,0,1.546.092A9.673,9.673,0,0,0,415.7,279.7a11.617,11.617,0,0,1,4.416-3.048,7.062,7.062,0,0,1,6.328.474c.265.168.517.362.8.5,1.341.673,1.951.488,2.932-.844a3.7,3.7,0,0,1,.473-.456l1.87.424c.047.618.146,1.238.132,1.85-.07,3.114-.171,6.228-.255,9.342-.029,1.089-.069,2.177-.038,3.266.007.257.272.507.418.762a13.944,13.944,0,0,1-.327,4.656,5.353,5.353,0,0,0-.091,1.633q-.018,2.35-.012,4.7a48.554,48.554,0,0,1-2.8,16.283,25.683,25.683,0,0,1-3.961,7.688c-3.523,4.374-7.7,7.974-13.152,9.856a41.232,41.232,0,0,1-5.847,1.633,17.291,17.291,0,0,1-2.1.147,60.163,60.163,0,0,1-8.208-.39c-2.153-.345-4.334-.561-6.467-1.043-1.982-.448-3.96-.92-5.918-1.462a68.054,68.054,0,0,1-9.618-3.788c-1.422-.639-2.7-1.595-4.075-2.341a7.022,7.022,0,0,0-1.543-.436ZM351.859,292.8a3.732,3.732,0,0,0-3.529,1.322,5.61,5.61,0,0,0-1.306,4.376,4.316,4.316,0,0,0,.473,1.306.968.968,0,0,0,1.212.435.84.84,0,0,0,.613-.888,18.343,18.343,0,0,1,.074-2.11c.31-1.915,1.708-2.612,3.45-1.712a3.274,3.274,0,0,1,1.2,1.06,5.8,5.8,0,0,1,.995,3.55,4.94,4.94,0,0,0,1.612,4,8.035,8.035,0,0,1,1.288,1.651,1.908,1.908,0,0,1-.3,2.562,6.649,6.649,0,0,0-1.136,1.463.961.961,0,0,0,.819,1.365,3.629,3.629,0,0,0,3.7-2.286c.594-2.122.589-4.251-1.216-5.828a6.348,6.348,0,0,1-1.948-4.354c-.039-.31-.01-.629-.053-.938C357.434,295.17,354.46,292.258,351.859,292.8Zm47.491-8.887c1,.109,1.554-.148,1.778-.716a1.387,1.387,0,0,0-.56-1.654,12.982,12.982,0,0,0-1.784-1.134q-5.506-2.931-11.031-5.827a5.615,5.615,0,0,0-.871-.363,1.869,1.869,0,0,0-2.269.721,1.8,1.8,0,0,0,.47,2.328,5.131,5.131,0,0,0,1.154.8,94.187,94.187,0,0,0,11.967,5.491c.445.151.9.274,1.145.349Zm-6.111,30.2a9.8,9.8,0,0,0,.827-1.51,1.386,1.386,0,0,0-1.682-1.819,5.543,5.543,0,0,0-2.694,1.784A2.237,2.237,0,0,0,389,314.7a2.3,2.3,0,0,0,.31.591l1.793.355c.24.422.457.75.62,1.1a8.563,8.563,0,0,0,6.3,5.09,10.259,10.259,0,0,0,5.769-.258,1.679,1.679,0,0,0,1.153-2.213c-.16-.774-.8-1.164-1.817-1.058a11.243,11.243,0,0,0-1.135.26,8.148,8.148,0,0,1-3.942-.012c-2.35-.663-3.714-2.41-4.814-4.442Zm3.853-23.809c-.2-.946-.3-1.808-.563-2.619a3.54,3.54,0,0,0-3.21-2.386,3.222,3.222,0,0,0-3.167,2.033,7.8,7.8,0,0,0-.306,5.527,3.459,3.459,0,0,0,6.493.327,18.164,18.164,0,0,0,.752-2.884Zm18.286,16.707a28.793,28.793,0,0,0-1.731-8.186,6.356,6.356,0,0,0-.659-1.241,1.449,1.449,0,0,0-1.673-.469c-.484.131-.718.614-.64,1.343a6.309,6.309,0,0,0,.12.689c.526,2.354,1.011,4.718,1.6,7.054.374,1.486-.033,2.85-2.08,3.612a13.558,13.558,0,0,0-1.966.742,1.775,1.775,0,0,0-.156,3.1,1.493,1.493,0,0,0,1.321.233,9.092,9.092,0,0,0,4.555-2.74,4.857,4.857,0,0,0,1.312-4.138Zm8.6-15.5a15.779,15.779,0,0,0-.275-2.079,3.283,3.283,0,0,0-2.939-2.624,3.148,3.148,0,0,0-2.987,2.806,11.822,11.822,0,0,0-.036,3.252,4.164,4.164,0,0,0,.838,1.888,2.63,2.63,0,0,0,3.918.318,4.251,4.251,0,0,0,1.491-3.563Z" transform="translate(-257.221 -221.161)"/><path class="v" d="M433.741,282.717l-1.87-.423a3.7,3.7,0,0,0-.473.456c-.98,1.331-1.591,1.515-2.932.844-.279-.14-.53-.335-.8-.5a7.062,7.062,0,0,0-6.328-.475,11.616,11.616,0,0,0-4.416,3.048,9.67,9.67,0,0,1-1.387,1.255,1.269,1.269,0,0,1-1.546-.092,1.22,1.22,0,0,1-.446-1.468,7.494,7.494,0,0,1,.9-1.64,12.953,12.953,0,0,1,9.868-5.2c.559-.037,1.277.327,1.625-.477l1.678.917c1.5-.871,3-1.662,4.415-2.593.9-.593,1.76-1.337,1.483-2.65l.02.03.475-.578c-.109-.5-.3-.913-.919-.824a3.1,3.1,0,0,0-.665.218,11.773,11.773,0,0,1-7.619.34c-1.5-.416-2.956-.987-4.433-1.49l-.023-.013-.923-.506-4.68-5.15a29.825,29.825,0,0,0-4.622-6.495A34.581,34.581,0,0,0,398.3,250.46a17.722,17.722,0,0,0-9.154-1.7,25.079,25.079,0,0,0-8.991,2.612,14.518,14.518,0,0,0-1.734,1.207c.5,1.111.961,2.1,1.4,3.095a33.693,33.693,0,0,1,2.079,8.19,17.129,17.129,0,0,1-2.748,9.1,16.535,16.535,0,0,1-6.326,5.827c-.481.257-.973.5-1.461.748-.374.089-.754.157-1.12.271a43.535,43.535,0,0,1-11.193,2.13c-1.549.071-3.092.243-4.638.37a21.805,21.805,0,0,1-2.55-.168c-2.046-.366-4.073-.829-6.118-1.206-.241-.046-.538.21-.808.327a15.7,15.7,0,0,0-3.022-3.873c-3.655-3.483-4.126-7.776-1.948-12.283a22.033,22.033,0,0,0,2.328-6.879c.123-1.011.2-2.03.271-3.048a17.948,17.948,0,0,1,1.843-7.246,11.284,11.284,0,0,1,6.824-5.769,16.709,16.709,0,0,1,9.727-.55,2.369,2.369,0,0,0,.653-.067,39.781,39.781,0,0,1,6.139-6.271,33.717,33.717,0,0,1,20.66-8.08,21.861,21.861,0,0,1,10.994,2.076,57.752,57.752,0,0,1,5.774,3.157,74.134,74.134,0,0,1,11.136,8.673c3.548,3.335,6.983,6.8,10.644,10a53.955,53.955,0,0,0,15.622,9.929c4.451,1.759,6.5,5.207,6.986,9.761a11.116,11.116,0,0,1-.061,2.821c-.616,4.075-2.744,6.966-6.773,8.217-1.337.414-2.744.6-4.118.895Z" transform="translate(-258.442 -227.14)"/><path class="w" d="M376.359,499.721a4.68,4.68,0,0,1-2.487-.568,44.331,44.331,0,0,1-9.143-6.134c-1.871-1.567-3.615-3.244-5.35-4.945a19.119,19.119,0,0,1-5.1-8.325,8.49,8.49,0,0,1-.486-3,9.774,9.774,0,0,0,0-1.649,12,12,0,0,1,1.479-6.575c1.13-2.324,2.41-4.579,3.741-6.8,2.1-3.491,4.294-6.922,6.443-10.38a7.736,7.736,0,0,0,.423-.843,1.174,1.174,0,0,0-.15-1.32,8.983,8.983,0,0,0-.636-.7,66.564,66.564,0,0,1-6.779-8.085c-2.076-2.842-4.33-5.551-6.359-8.425a35.893,35.893,0,0,1-4.22-7.86,33.529,33.529,0,0,1-1.684-5.618,22.315,22.315,0,0,1-.713-6.269c.2-2.093.557-4.17.8-6.259a102.561,102.561,0,0,1,2.958-13.26c.666-2.654,1.439-5.281,2.228-7.9,2.189-7.271,4.481-14.51,6.58-21.806.752-2.612,1.053-5.355,1.582-8.035.332-1.687.706-3.363,1.061-5.045a6.262,6.262,0,0,0,.31-1.6c-.233-3.542.653-7.021.565-10.551a78.375,78.375,0,0,1,6.069,14.368c.515,1.633.919,3.3,1.4,4.943.149.517.374,1.012.564,1.518q.737,4.521,1.473,9.042c.021.39.02.783.066,1.17.435,3.665.934,7.325,1.306,10.994.258,2.5.361,5.013.519,7.522.232,3.685.486,7.37.666,11.059.2,4.158.123,8.319.478,12.483.5,5.87.738,11.765,1,17.652q.508,11.424.871,22.858.327,10.253.467,20.511c.109,8.726.119,17.453.162,26.18C376.46,498.626,376.393,499.173,376.359,499.721Z" transform="translate(-256.965 -202.556)"/><path class="x" d="M410.45,464.7l-4.306,2.3a5.3,5.3,0,0,0-2.744,4.827,52.212,52.212,0,0,0,.555,8.4,5.31,5.31,0,0,0,1.708,3.508,4.475,4.475,0,0,0,2.24,1.2c1.152.19,2.311.332,3.468.5a40.39,40.39,0,0,1-6.371,7.4c-.056.051-.142.07-.2.118a13.407,13.407,0,0,0-1.427,1.2,32.405,32.405,0,0,1-5.274,4.235,9.226,9.226,0,0,1-3.56,1.67c-.037-.544-.1-1.089-.109-1.639-.142-12.015-.335-24.027-.4-36.042q-.086-15.9.073-31.8c.12-10.756.444-21.51.61-32.266.121-7.773.115-15.549.2-23.322.021-1.882.18-3.762.261-5.643.068-1.565.116-3.132.173-4.7a4.289,4.289,0,0,0,.327-1.078c.05-1.69.047-3.383.062-5.074.171-2.575.307-5.153.521-7.728a62.486,62.486,0,0,1,2.385-13.136,13.135,13.135,0,0,1,.544-1.289,5.554,5.554,0,0,1,.812,1.648,53.77,53.77,0,0,1,.5,6.531,43.249,43.249,0,0,0,1.183,9.269,112.161,112.161,0,0,0,4.065,13.948c1.029,2.954,2.218,5.852,3.31,8.784,2.376,6.377,4.888,12.707,6.661,19.3.467,1.735,1.023,3.448,1.572,5.16a73.908,73.908,0,0,1,1.7,8,24.053,24.053,0,0,1,.4,5.131,31.048,31.048,0,0,1-2.153,10.5,40.3,40.3,0,0,1-4.852,9.093q-2.628,3.749-5.1,7.6a74.858,74.858,0,0,1-5.527,7.272c-.934,1.123-1,1.5-.218,2.694,1.755,2.684,3.523,5.354,5.49,7.9,1.2,1.543,2.212,3.225,3.289,4.86A2,2,0,0,1,410.45,464.7Z" transform="translate(-246.146 -202.879)"/><path class="y" d="M542.951,320.673a87.116,87.116,0,0,0-9.617-5.809c-2.108-1.192-4.281-2.267-6.408-3.429a13.835,13.835,0,0,0-3.7-1.439c-.544-.593-1.306-.317-1.959-.493-1.542-2.816-2.845-5.754-4.327-8.6-2.31-4.441-4.624-8.881-7.232-13.16-1.018-1.671-1.916-3.417-2.852-5.137a4.137,4.137,0,0,1-.544-1.294,2.587,2.587,0,0,1,.109-1.6,5.179,5.179,0,0,1,3.919-2.662c3.5-.4,6.277,1.065,8.738,3.26a22.334,22.334,0,0,1,5.786,7.042c.055.12.245.176.517.361a3.043,3.043,0,0,0,.6-.826c.569-1.951,1.078-3.919,1.633-5.878.909-3.235,1.727-6.5,2.786-9.687,1.164-3.5,1.77-7.126,2.677-10.682.848-3.326,1.4-6.726,2.388-10.02.2-.675.346-1.37.595-2.027a3.1,3.1,0,0,1,4.528-1.959,4.109,4.109,0,0,1,2.49,2.369c.678,1.912,1.232,3.872,1.77,5.83a4.28,4.28,0,0,1,.02,1.641c-.234,1.776-.517,3.545-.782,5.318-.172,1.156-.418,2.306-.505,3.469-.2,2.756-1.207,5.334-1.733,8.01-.072.367-.09.743-.127,1.055a2.741,2.741,0,0,0,2.138.37,15.339,15.339,0,0,1,8.953,2.371,47.913,47.913,0,0,1,9.99,7.753,2.721,2.721,0,0,1,1.012,2.032,2.012,2.012,0,0,0-1,1.979c.038,1.415.065,2.83-.008,4.245a14.354,14.354,0,0,1-1.879,6.468,26.955,26.955,0,0,1-3.157,4.362,13.423,13.423,0,0,1-3.341,2.539c-1.249.738-2.026.359-2.623-.936a1.548,1.548,0,0,1,.138-1.757c.334-.435.6-.917.925-1.361a24.9,24.9,0,0,0,2.773-4.908c.7-1.658,1.415-3.313,2.043-5a12.612,12.612,0,0,0,.852-3.147,46.006,46.006,0,0,0,.036-4.71,3.818,3.818,0,0,0-.157-1.157c-.172-.516-.386-1.061-1.05-1.132-.555-.059-1.081.5-1.128,1.263-.05.783,0,1.571-.04,2.355a16.372,16.372,0,0,1-1.189,5.711c-1.011,2.379-2.187,4.691-3.229,7.06a14.5,14.5,0,0,1-4.406,5.2,8.185,8.185,0,0,1-1.285-.576,2.253,2.253,0,0,1-.98-3.048,4.467,4.467,0,0,1,.3-.639,109.234,109.234,0,0,0,4.733-10.5,10.6,10.6,0,0,0,.846-3.147,35.85,35.85,0,0,0,.014-4.71,5.438,5.438,0,0,0-.47-1.783,1,1,0,0,0-1.2-.506,1.224,1.224,0,0,0-1.095,1.317c-.049,1.334-.043,2.67-.029,4.007a13.354,13.354,0,0,1-.8,4.6,79.277,79.277,0,0,1-4.835,10.714,4.982,4.982,0,0,1-.712.818c-.7-1.164-1.27-2.188-1.909-3.166a3.712,3.712,0,0,1-.459-3.344c.956-3.144,1.808-6.319,2.667-9.49a9.47,9.47,0,0,0,.289-2.057c.02-.457-.737-.762-1.078-.435a4.218,4.218,0,0,0-.858,1.079,32.934,32.934,0,0,0-3.144,8.576,2.669,2.669,0,0,1-1.088,1.939c-2.129-1.306-4.629-2.035-6.793-3.468a7.845,7.845,0,0,0-.98-.639,1.033,1.033,0,0,0-1.53.871,2.565,2.565,0,0,0,.925,2.524,25.11,25.11,0,0,0,2.286,1.627c1.343.8,2.787,1.449,4.092,2.307a8.5,8.5,0,0,1,4,7.3,15.43,15.43,0,0,1-.262,4.446c-.21.773.611,1.675,1.452,1.872a1.4,1.4,0,0,0,1.453-.968c.435-1.322,1.306-2.517,1.2-4.027-.028-.372.29-.772.528-1.352a11.133,11.133,0,0,0,.727.913,5.128,5.128,0,0,0,4.369,1.841,8.218,8.218,0,0,1,1.588.1c.289.485.544.88.762,1.292a2.685,2.685,0,0,0,2.1,1.36,4.708,4.708,0,0,0,2.772-.26,14.321,14.321,0,0,1,1.764-.579,2.44,2.44,0,0,1-.768,1.875,41.779,41.779,0,0,1-9.78,7.862,9.258,9.258,0,0,0-3.234,2.2Z" transform="translate(-221.206 -222.892)"/><path class="p" d="M333.981,692.637c1.515.355,3.025.736,4.547,1.057a25.23,25.23,0,0,0,5.538.807,2.645,2.645,0,0,1,.7.021c2.854.789,5.769.349,8.654.435,1.725.051,3.454.042,5.18,0,.85-.025,1.694-.232,2.546-.3,1.012-.077,2.029-.089,3.048-.13a27.237,27.237,0,0,0,.185,3.022c.527,3.093,1.2,6.161,1.673,9.26a6.022,6.022,0,0,0,1.572,3.32,23.1,23.1,0,0,1,5.7,11.175,21.39,21.39,0,0,1,.013,7.491c-.165,1.148-.53,1.466-1.732,1.484-3.216.046-6.435.085-9.652.031q-14-.236-28.006-.553c-1.489-.031-2.981-.084-4.463-.195-2.792-.208-3.733-1.341-3.374-4.182a24.539,24.539,0,0,1,2.387-8.091c2.562-5.045,3.68-10.481,4.482-16C333.391,698.416,333.651,695.521,333.981,692.637ZM353.1,719.176a23.176,23.176,0,0,0,2.951-.653c2.385-.853,2.563-3.316,1.7-5.084a7.419,7.419,0,0,0-4.107-3.664,16.425,16.425,0,0,0-12.774.224,17.626,17.626,0,0,0-3.2,1.932,4.341,4.341,0,0,0-1.731,4.354,3.85,3.85,0,0,0,4.523,3.047c1.284-.32,2.565-.653,3.852-.964a9.92,9.92,0,0,1,5.088.046C350.6,718.747,351.829,718.92,353.1,719.176Z" transform="translate(-261.247 -123.708)"/><path class="z" d="M311.372,520.822a10.546,10.546,0,0,1,.483-3.69c.988-3.529,1.868-7.087,2.771-10.638,1.342-5.286,2.395-10.634,3.374-16,.533-2.906,1.177-5.793,1.735-8.7a11.491,11.491,0,0,0,.109-1.872,23.509,23.509,0,0,1,.346-3.953,11.545,11.545,0,0,0-.091-4.663,14.12,14.12,0,0,1-.18-3.022c0-.253.309-.505.477-.762.41.653.842,1.294,1.23,1.959,1.445,2.495,2.841,5.02,4.332,7.487.678,1.12,1.541,2.127,2.32,3.185a30.1,30.1,0,0,1-.717,7.9c-.4,2.539-.738,5.087-1.121,7.629-.279,1.85-.62,3.684-.863,5.537-.172,1.313-.159,2.629-.46,3.951a49.01,49.01,0,0,0-.568,5.107c-.109.927-.3,1.851-.488,2.764-.447,2.137-.889,4.274-1.386,6.4q-1.384,5.927-2.842,11.838a3.968,3.968,0,0,1-.56.968c-.341-.411-.714-.8-1.018-1.241q-3.113-4.49-6.2-9A12.861,12.861,0,0,1,311.372,520.822Z" transform="translate(-264.509 -173.726)"/><path class="y" d="M399.978,326.677a2.617,2.617,0,0,1,.435.793c.165,1.153.27,2.314.418,3.675-.358.389-.815.918-1.306,1.415-2.934,2.954-5.888,5.887-8.8,8.856-.819.835-1.535,1.771-2.3,2.657-.206.237-.414.474-.637.693a2.161,2.161,0,0,1-2.963.41c-1.154-.664-2.272-1.386-3.416-2.068-2.623-1.562-5.3-3.048-7.866-4.691-2.7-1.725-5.309-3.592-7.946-5.415a2.081,2.081,0,0,1-1.024-1.511,65.409,65.409,0,0,0,8.687-1.952,52.877,52.877,0,0,1,15.232-2.4,21.182,21.182,0,0,0,6.313-.416,4.208,4.208,0,0,1,1.173-.041C397.306,326.676,398.643,326.679,399.978,326.677Z" transform="translate(-252.686 -205.028)"/><path class="aa" d="M552.959,302.781a14.338,14.338,0,0,0-1.764.579,4.707,4.707,0,0,1-2.772.26,2.685,2.685,0,0,1-2.1-1.36c-.218-.411-.476-.806-.762-1.292a8.226,8.226,0,0,0-1.588-.1,5.128,5.128,0,0,1-4.369-1.841,11.108,11.108,0,0,1-.727-.913c-.238.58-.556.979-.528,1.352.109,1.505-.762,2.7-1.2,4.027a1.4,1.4,0,0,1-1.453.968c-.842-.2-1.662-1.1-1.452-1.872a15.441,15.441,0,0,0,.262-4.446,8.5,8.5,0,0,0-4-7.3c-1.306-.859-2.748-1.5-4.091-2.308a25.08,25.08,0,0,1-2.286-1.627,2.565,2.565,0,0,1-.925-2.524,1.033,1.033,0,0,1,1.531-.871,7.859,7.859,0,0,1,.979.639c2.163,1.432,4.664,2.156,6.793,3.468a2.67,2.67,0,0,0,1.089-1.939,32.942,32.942,0,0,1,3.143-8.576,4.216,4.216,0,0,1,.858-1.079c.341-.326,1.1-.019,1.078.435a9.474,9.474,0,0,1-.289,2.057c-.859,3.172-1.711,6.347-2.667,9.49a3.711,3.711,0,0,0,.459,3.344c.639.98,1.213,2,1.909,3.166a4.988,4.988,0,0,0,.712-.818,79.275,79.275,0,0,0,4.835-10.714,13.356,13.356,0,0,0,.8-4.6c-.014-1.336-.02-2.672.029-4.007a1.225,1.225,0,0,1,1.095-1.317,1,1,0,0,1,1.2.506,5.444,5.444,0,0,1,.47,1.783,35.838,35.838,0,0,1-.014,4.71,10.605,10.605,0,0,1-.846,3.147,109.228,109.228,0,0,1-4.733,10.5,4.421,4.421,0,0,0-.3.639,2.253,2.253,0,0,0,.98,3.048,8.2,8.2,0,0,0,1.285.576,14.5,14.5,0,0,0,4.418-5.193c1.042-2.368,2.217-4.68,3.228-7.06a16.366,16.366,0,0,0,1.189-5.711c.036-.785-.01-1.573.04-2.356.048-.762.574-1.321,1.128-1.263.664.071.877.616,1.05,1.132a3.818,3.818,0,0,1,.157,1.157,46.235,46.235,0,0,1-.036,4.71,12.613,12.613,0,0,1-.853,3.147c-.627,1.687-1.34,3.343-2.043,5a24.9,24.9,0,0,1-2.772,4.91c-.327.444-.591.927-.925,1.361a1.547,1.547,0,0,0-.138,1.757c.6,1.3,1.374,1.674,2.623.936a13.42,13.42,0,0,0,3.34-2.539,26.963,26.963,0,0,0,3.156-4.362,14.356,14.356,0,0,0,1.879-6.468c.072-1.415.045-2.83.007-4.245a2.013,2.013,0,0,1,1-1.979c.249.173.653.3.718.531a13.207,13.207,0,0,1,.584,2.738,16.014,16.014,0,0,1-2.584,10.744c-.809,1.147-1.415,2.434-2.129,3.652a13.853,13.853,0,0,1-3.687,4.2Z" transform="translate(-217.443 -216.944)"/><path class="ab" d="M400.487,329.165H396.48a4.206,4.206,0,0,0-1.173.041,21.187,21.187,0,0,1-6.313.416,52.88,52.88,0,0,0-15.232,2.4,65.385,65.385,0,0,1-8.687,1.952,4.715,4.715,0,0,1-2.628-1.415,2.164,2.164,0,0,1,.049-1.8,25.481,25.481,0,0,0,1.282-6.9c.14-2.256.531-4.5.792-6.749.063-.544.05-1.1.071-1.647a7.02,7.02,0,0,1,1.548.435c1.377.747,2.654,1.7,4.075,2.341a68.064,68.064,0,0,0,9.618,3.788c1.959.544,3.936,1.013,5.918,1.462,2.132.481,4.314.7,6.467,1.043a60.157,60.157,0,0,0,8.208.39Q400.478,327.041,400.487,329.165Z" transform="translate(-253.196 -207.516)"/><path class="ac" d="M369.4,276.869a8.3,8.3,0,0,1,.2,1.146q.29,8.233.55,16.466c.04,1.332.074,2.672-.009,4a10.165,10.165,0,0,1-.515,2.756,2.011,2.011,0,0,1-3.249.98,6.323,6.323,0,0,1-2.263-2.945c-.509-1.231-.921-2.5-1.39-3.749-.524-1.393-.993-2.813-1.612-4.161a14.8,14.8,0,0,0-5.975-6.474,7.772,7.772,0,0,0-7.625-.6c-.58.258-1.143.529-1.758.109l.218-2.816a14.263,14.263,0,0,0,4.385-.464c1.6-.256,3.215-.507,4.789-.883a78.415,78.415,0,0,0,7.686-1.89c.805-.279,1.646-.459,2.473-.676A13.215,13.215,0,0,1,369.4,276.869Z" transform="translate(-256.865 -216.093)"/><path class="q" d="M369.837,278.138a13.215,13.215,0,0,0-4.1.808c-.826.218-1.668.4-2.473.676a78.41,78.41,0,0,1-7.686,1.889c-1.579.376-3.19.627-4.789.883a14.253,14.253,0,0,1-4.385.464c-.247-2.02-.34-4.076-.786-6.051a48.826,48.826,0,0,0-1.823-5.323c.27-.116.567-.371.808-.327,2.045.377,4.072.84,6.118,1.206a21.508,21.508,0,0,0,2.55.167l-.066,1.089a2.92,2.92,0,0,0,2.037.71c.783.033,1.566.046,2.349.027a44.8,44.8,0,0,0,12.191-2.219Z" transform="translate(-257.301 -217.362)"/><path class="ad" d="M374.275,355.006c1.989-2.079,3.973-4.164,5.972-6.234a12.273,12.273,0,0,1,1.06-.879,3.988,3.988,0,0,1,1.238.576c.817.834,1.5,1.794,2.311,2.638a16.565,16.565,0,0,1,3.88,6.36c.109.335.483.583.734.871-.444,1.306-1.763,1.809-2.559,2.792a11.381,11.381,0,0,1-7.6.489,1.408,1.408,0,0,0-.457.01l-2.779-2.395c-.423-.743-.871-1.472-1.26-2.233a2.992,2.992,0,0,1-.542-2Z" transform="translate(-250.535 -200.31)"/><path class="ae" d="M384.609,359.844c.8-.98,2.116-1.485,2.559-2.792.4-.635.8-1.272,1.213-1.9.327-.494.671-.973,1.007-1.459a1.431,1.431,0,0,1,1.314.777,13.647,13.647,0,0,0,1.292,1.613,2.539,2.539,0,0,0,3.533.442,13.149,13.149,0,0,0,1.592-1.316l.7-.589c-.016,1.692-.012,3.384-.062,5.075a4.289,4.289,0,0,1-.327,1.078c-.537.446-1.056.914-1.612,1.334-3.156,2.387-6.793,3.005-9.97.094a3.573,3.573,0,0,0-1.035-.458Z" transform="translate(-248.233 -199.022)"/><path class="ae" d="M376.315,353.713a2.992,2.992,0,0,0,.544,2c.386.762.837,1.49,1.26,2.232a4.9,4.9,0,0,0-1.217.577,19.645,19.645,0,0,0-1.968,1.99,9.276,9.276,0,0,1-8.4,3.6q-.737-4.52-1.473-9.042c.82.435,1.633.871,2.461,1.3a7.258,7.258,0,0,0,2.8,1.131,4.282,4.282,0,0,0,3.639-1.232C374.752,355.426,375.53,354.57,376.315,353.713Z" transform="translate(-252.577 -199.017)"/><path class="af" d="M416.486,272.618l4.879.012c-.1,1.088-.167,2.177-.31,3.25-.574,4.3-1.57,8.447-4.309,11.966-.147-.252-.414-.5-.419-.762-.03-1.089.009-2.177.038-3.265.083-3.114.185-6.228.255-9.342C416.632,273.856,416.533,273.236,416.486,272.618Z" transform="translate(-241.188 -217.036)"/><path class="af" d="M390.407,355.613c-.336.486-.682.964-1.007,1.459-.414.627-.809,1.265-1.213,1.9-.25-.29-.625-.538-.734-.871a16.565,16.565,0,0,0-3.88-6.36c-.807-.845-1.493-1.8-2.311-2.638a3.984,3.984,0,0,0-1.238-.576l2.669-3.448c.739-.128.778.512,1.029.829,1.983,2.519,3.928,5.068,5.885,7.608C390.085,354.138,390.62,354.73,390.407,355.613Z" transform="translate(-249.251 -200.939)"/><path class="ab" d="M320.224,530.139a2.329,2.329,0,0,1,.813.132,11.954,11.954,0,0,0,6.4,1.645c.845-.008,1.69.081,2.535.125,0,1.009,0,2.018.007,3.027.014,1.782.037,3.563.057,5.344a1.471,1.471,0,0,1-.293-.031,1.794,1.794,0,0,0-.913-1.28,17.432,17.432,0,0,1-2.3-1.146,14.179,14.179,0,0,1-6.3-7.815Z" transform="translate(-262.539 -159.815)"/><path class="ab" d="M518.711,298.007c.653.176,1.415-.1,1.959.493l-2.9-.011Z" transform="translate(-218.645 -211.395)"/><path class="x" d="M398.6,335.207a.327.327,0,0,1-.086.319l-.061-.182Z" transform="translate(-245.156 -203.129)"/><path class="ag" d="M366.263,363.343a9.276,9.276,0,0,0,8.4-3.6,19.642,19.642,0,0,1,1.968-1.99,4.9,4.9,0,0,1,1.217-.577l2.779,2.395-.183,4.19a5.29,5.29,0,0,0-.12.694q-.462,10.014-.908,20.028-.59,13.664-1.15,27.329-.244,5.769-.515,11.543-.6,13.074-1.208,26.146c-.235,5.262-.419,10.526-.653,15.783-.186,4.245-.334,8.485-.635,12.717a18.816,18.816,0,0,0,2.455,10.857q3.54,6.255,7.056,12.525a11.75,11.75,0,0,0,.708,1.223,1.472,1.472,0,0,0,2.417.16,9.81,9.81,0,0,0,1.338-2.2c1.711-3.793,3.331-7.629,5.071-11.409a20.136,20.136,0,0,0,1.723-9.418c-.326-7.38-.813-14.753-1.265-22.128-.544-8.786-1.124-17.569-1.662-26.355-.4-6.59-.762-13.183-1.145-19.774q-.246-4.236-.517-8.473c-.406-6.431-.828-12.863-1.22-19.3-.382-6.276-.73-12.555-1.106-18.831a7.765,7.765,0,0,0-.235-1.136l.011-2.778a3.576,3.576,0,0,1,1.035.458c3.177,2.912,6.813,2.292,9.97-.094.556-.42,1.075-.888,1.612-1.334-.058,1.565-.109,3.132-.173,4.7-.082,1.881-.241,3.761-.261,5.643-.083,7.773-.077,15.549-.2,23.322-.167,10.755-.49,21.509-.61,32.266q-.178,15.9-.073,31.8c.065,12.015.258,24.027.4,36.042.008.544.071,1.088.109,1.639v12.708c-.454.026-.829.065-1.205.066-5.4.014-10.806.013-16.209.051a17.935,17.935,0,0,0-2.286.306,20.223,20.223,0,0,0-5.473.12l-3.557-.158c-.044-.7-.109-1.3-.116-1.9-.018-2.955-.012-5.911-.033-8.867,0-.775-.074-1.55-.109-2.324.034-.544.1-1.1.1-1.642-.044-8.726-.053-17.452-.162-26.18-.087-6.838-.255-13.676-.467-20.511q-.357-11.429-.871-22.858c-.262-5.887-.5-11.782-1-17.652-.355-4.162-.278-8.325-.478-12.483-.18-3.689-.435-7.373-.666-11.059-.158-2.509-.261-5.024-.519-7.523-.378-3.671-.871-7.332-1.306-10.993C366.283,364.126,366.284,363.733,366.263,363.343Z" transform="translate(-252.309 -198.248)"/><path class="ah" d="M443.76,728.646a54.7,54.7,0,0,1-8.827-2.267,31.5,31.5,0,0,1-10.115-6.648c-1.031-.953-1.992-1.98-2.985-2.974.62-.3,1.23-.628,1.861-.9a3.306,3.306,0,0,0,2.286-3.2c.065-2.825.3-5.644.435-8.467q.458-9.648.889-19.3c.372-8.236.709-16.475,1.12-24.708.442-8.861.973-17.718,1.428-26.581q.526-10.232.958-20.472c.327-7.609.615-15.22.937-22.831.033-.773.195-1.54.3-2.309a2.815,2.815,0,0,0-.078.924,57.992,57.992,0,0,1,1.062,8.6q.392,3.5.788,7c.036.312.061.626.091.937.3,3.116.626,6.232.909,9.351.218,2.34.354,4.688.573,7.027.239,2.571.534,5.139.8,7.708.033.311.053.625.082.937.3,3.274.625,6.547.9,9.825.218,2.576.354,5.161.57,7.737.238,2.808.529,5.611.8,8.417.016.157.044.311.055.468.19,2.815.35,5.632.576,8.444.232,2.887.529,5.769.8,8.652.022.235.047.469.061.7.188,2.973.34,5.948.574,8.916.218,2.809.526,5.612.794,8.417.014.157.029.312.039.469.19,3.048.342,6.105.579,9.153.211,2.73.516,5.454.775,8.183.037.39.056.783.081,1.173.192,2.973.346,5.947.588,8.916.206,2.495.515,4.982.775,7.471a1.123,1.123,0,0,1-.477,1.229Z" transform="translate(-239.961 -146.961)"/><path class="ai" d="M374.518,481.171a20.278,20.278,0,0,1,5.474-.121c.941.028,1.882.082,2.822.083,4.945,0,9.89-.016,14.835,0,.754,0,1.584-.218,2.371.6v2.191q0,4.245.008,8.481a5.917,5.917,0,0,0,.1,1.869A11.086,11.086,0,0,1,400.49,498c.01,1.959,0,3.926.01,5.889a5.851,5.851,0,0,0,.133,1.865,9.541,9.541,0,0,1,.327,3.257c.012,1.884,0,3.769.009,5.654a5.281,5.281,0,0,0,.073,1.633,14.4,14.4,0,0,1,.389,4.663c.019,2.669,0,5.333.013,8.008a18.247,18.247,0,0,0,.133,1.871c.1.928.27,1.85.316,2.782.056,1.176.049,2.357.007,3.532a10.283,10.283,0,0,0,.762,3.888,5.959,5.959,0,0,0,6.1,4.236c1.8.012,3.611,0,5.415.008a6.918,6.918,0,0,1,1.641.06,13.84,13.84,0,0,0,6.729.066,2.888,2.888,0,0,1,.92.056c.851.09,1.7.261,2.552.27,3.453.029,6.906.01,10.359.009a28.281,28.281,0,0,1,.678,5.66c-8.253,0-16.5.014-24.757,0-.851,0-1.7-.209-2.554-.278a7.8,7.8,0,0,0-2.793-.09,10.405,10.405,0,0,1-5.321-.071,8.392,8.392,0,0,1-3.243-1.266,10.8,10.8,0,0,1-3.592-3.95,36.618,36.618,0,0,1-3.3-10.961c-.319-1.79-.183-3.619-.511-5.357-.653-3.446-.248-6.891-.4-10.33a13.271,13.271,0,0,0-.342-3.5,10.083,10.083,0,0,1-.132-2.576,15.077,15.077,0,0,0-.382-4.668,5.163,5.163,0,0,1-.086-1.639c-.009-1.809,0-3.617-.01-5.425,0-.459-.071-.919-.1-1.272a1.578,1.578,0,0,0-1.85-.372,9.5,9.5,0,0,1-3.256.347,21.707,21.707,0,0,0-4.907.369,15.34,15.34,0,0,1-3.521.1,11.494,11.494,0,0,0-3.959.39,2.723,2.723,0,0,1-1-.079,5.637,5.637,0,0,1-.247-1.14q-.024-8.372,0-16.745a8.1,8.1,0,0,1,.159-1.071c.615-.077,1.208-.165,1.8-.224S374.034,481.748,374.518,481.171Z" transform="translate(-251.304 -170.755)"/><path class="ag" d="M328.4,495.457c-.778-1.058-1.641-2.068-2.32-3.185-1.492-2.466-2.887-4.992-4.332-7.487-.387-.666-.819-1.306-1.23-1.959-.81-1.6-1.581-3.23-2.438-4.809-2.286-4.207-4.605-8.393-6.907-12.588-.109-.2-.188-.428-.361-.834.471-1.177.927-2.51,1.524-3.777,2.581-5.463,5.225-10.9,7.81-16.358q3.526-7.445,6.966-14.928c1.009-2.209,1.869-4.487,2.823-6.721a7.1,7.1,0,0,0,.531-2.748c.078-5.574.185-11.149.285-16.723.016-.864.036-1.728.087-2.591a4.973,4.973,0,0,1,.208-1.151,1.163,1.163,0,0,1,1.228-.871,1.062,1.062,0,0,1,.932.925,21.973,21.973,0,0,1,.3,2.8c.052,5.341.109,10.683.077,16.025-.053,8.011-.169,16.023-.3,24.035-.061,3.848-.295,7.692-.3,11.538-.008,6.068-.923,12.051-1.562,18.058-.738,6.946-1.695,13.869-2.573,20.8C328.753,493.764,328.553,494.609,328.4,495.457Z" transform="translate(-264.631 -189.017)"/><path class="ai" d="M328.259,540.079q-.029-2.673-.057-5.344c-.009-1.009,0-2.018-.006-3.027,2.667-.019,5.333-.051,8-.053q11.77-.011,23.538,0a9.85,9.85,0,0,1,3.483.345,5.756,5.756,0,0,0,1.868.117c1.648.012,3.295,0,4.943.01a6.054,6.054,0,0,1,1.633.086,9.665,9.665,0,0,0,6.523-.3c.247,1.505.451,2.939-.435,4.156a6.966,6.966,0,0,1-3.965,3.131,33.2,33.2,0,0,1-7.639.98c-11.612-.068-23.224-.028-34.838-.033C330.3,540.141,329.279,540.1,328.259,540.079Z" transform="translate(-260.767 -159.482)"/><path class="ai" d="M352.38,501.782c-1.415,0-2.821.011-4.231,0a9.3,9.3,0,0,1-3.483-.356,3.207,3.207,0,0,0-1.4-.1,27.008,27.008,0,0,1-6.284-.521,10.377,10.377,0,0,1-3.911-1.524,3.609,3.609,0,0,1-1.588-3.886,3.3,3.3,0,0,1,2.648-2.408,21.116,21.116,0,0,1,4.384-.653c4.936.067,9.875.024,14.811.017a6.932,6.932,0,0,0,2.1-.1c2.217-.738,4.136.03,6.045.987a3.781,3.781,0,0,1,2.043,3.2,4.1,4.1,0,0,1-2.205,4.3,6.266,6.266,0,0,1-3.767,1.08C355.833,501.708,354.1,501.783,352.38,501.782Z" transform="translate(-260.058 -168.3)"/><path class="aj" d="M434.7,551.607c-3.453,0-6.906.021-10.359-.008-.852-.009-1.7-.18-2.552-.27a2.886,2.886,0,0,0-.92-.056,13.841,13.841,0,0,1-6.729-.066,6.909,6.909,0,0,0-1.641-.06c-1.8-.006-3.61,0-5.415-.008a5.959,5.959,0,0,1-6.1-4.236,10.288,10.288,0,0,1-.762-3.888c.042-1.175.049-2.356-.007-3.532-.046-.93-.218-1.85-.316-2.782-.065-.623-.129-1.246-.133-1.871-.014-2.669,0-5.333-.013-8.008a14.4,14.4,0,0,0-.389-4.663,5.28,5.28,0,0,1-.073-1.633c-.008-1.884,0-3.769-.009-5.654a9.54,9.54,0,0,0-.327-3.257,5.855,5.855,0,0,1-.133-1.865c-.014-1.959,0-3.926-.01-5.889a11.092,11.092,0,0,0-.362-3.725,5.917,5.917,0,0,1-.1-1.869c-.009-2.83-.006-5.654-.008-8.481v-2.2c-.787-.815-1.617-.6-2.371-.6-4.945-.017-9.89,0-14.835,0-.939,0-1.881-.055-2.822-.083a18.1,18.1,0,0,1,2.286-.3c5.4-.038,10.806-.037,16.21-.051.375,0,.752-.04,1.205-.066v-12.7a9.228,9.228,0,0,0,3.56-1.67,32.407,32.407,0,0,0,5.274-4.235,13.387,13.387,0,0,1,1.427-1.2c.059-.048.146-.066.2-.118a40.4,40.4,0,0,0,6.371-7.4,78.388,78.388,0,0,0,9.029-3.777,5.32,5.32,0,0,1,2.629-.844c.391,6.558.745,13.118,1.184,19.672.419,6.241.933,12.477,1.4,18.715.109,1.477.2,2.956.3,4.436a7.551,7.551,0,0,0-2.105.081,17.377,17.377,0,0,1-4.186.406c-1.783.149-3.558.414-5.342.588-.992.1-2,.243-3.005.363a12.748,12.748,0,0,0-3.179.72,4,4,0,0,0-2.813,3.7,4.1,4.1,0,0,0,2.535,3.662,1.548,1.548,0,0,0,.211.109,8.866,8.866,0,0,0,3.406.762,15.733,15.733,0,0,1,3.721.308,16.214,16.214,0,0,0,3.969-.008c.928-.047,1.85-.27,2.779-.3,1.645-.053,3.293-.021,4.94-.024q.5,4.782,1.009,9.562.653,6.3,1.294,12.6.469,4.552.945,9.1c.348,3.345.71,6.688,1.038,10.036C434.693,549.886,434.674,550.748,434.7,551.607Z" transform="translate(-249.63 -176.614)"/><path class="ai" d="M424.788,499.951c-1.648,0-3.295-.029-4.941.024-.928.03-1.85.255-2.779.3a16.2,16.2,0,0,1-3.968.008,15.735,15.735,0,0,0-3.722-.308,8.863,8.863,0,0,1-3.406-.762,1.539,1.539,0,0,1-.211-.109,4.1,4.1,0,0,1-2.535-3.662,4,4,0,0,1,2.813-3.7,12.748,12.748,0,0,1,3.179-.721c1-.12,2.014-.266,3.005-.362,1.784-.175,3.559-.435,5.342-.588a17.372,17.372,0,0,0,4.186-.406,7.552,7.552,0,0,1,2.105-.081Z" transform="translate(-244.096 -168.835)"/><path class="ak" d="M464.228,395.924c.037,1.171.109,2.341.1,3.514,0,3.756-.032,7.51-.049,11.27v2.129c-7.837,3.781-11.631,10.056-11.9,18.56-.931.407-1.85.835-2.792,1.22q-8.469,3.47-16.951,6.913c-.862.348-1.779.556-2.669.829.05-5.488.116-10.978.147-16.466.039-6.9.047-13.805.073-20.706.008-1.882.079-3.764.046-5.647-.032-1.742.6-2.914,1.217-2.692,1.3.468,1.058,1.764,1.133,2.825.218,3.127.409,6.258.617,9.5a2.685,2.685,0,0,0,.871-.053c8.272-3.575,16.871-6.284,25.267-9.528C460.951,396.975,462.6,396.476,464.228,395.924Z" transform="translate(-238.152 -189.883)"/><path class="af" d="M402.381,258.753a19.781,19.781,0,0,0-8.345-2.792,34.495,34.495,0,0,0-16.909,2.594.681.681,0,0,0-.173.156l-.841-.1A40.109,40.109,0,0,0,372.857,249c7.293-4.477,15.417-3.359,22.152,2.09-.327.238-.633.445-.923.668-.805.617-1.611,1.232-2.4,1.869a1.615,1.615,0,0,0-.42.557c-.053.109-.029.369.047.414.172.1.455.218.593.139a5.072,5.072,0,0,0,.919-.721,7.924,7.924,0,0,1,3.81-1.944,24.273,24.273,0,0,1,5.787,5.993C402.582,258.318,402.848,258.549,402.381,258.753Zm-23.016-3.412c1.018-.847.934-2.092,1.554-2.953.684-.948,1.4-1.871,2.135-2.784.666-.833,1.773-1.256,2.314-2.358-.308-.12-.563-.317-.69-.253a10.283,10.283,0,0,0-5.76,7.51C378.872,254.712,379.173,255,379.365,255.341Zm10.994-6.6a3.29,3.29,0,0,0-1.182.157,20.832,20.832,0,0,0-2.461,1.772,5.73,5.73,0,0,0-1.681,2.772c-.135.446.059.75.728.68.153-.26.377-.576.544-.919a6.977,6.977,0,0,1,2.682-2.876,9.977,9.977,0,0,0,1.157-.786c.126-.117.11-.4.21-.8Zm-12.491-.517a5.3,5.3,0,0,0-2.338,3.256c-.05.181.109.418.171.629.262-.087.653-.09.767-.271a28.4,28.4,0,0,0,1.5-2.59c.1-.192-.042-.505-.1-1.027Z" transform="translate(-250.844 -222.901)"/><path class="al" d="M402.75,259.075c.467-.206.2-.435.039-.69A24.27,24.27,0,0,0,397,252.392a7.922,7.922,0,0,0-3.81,1.944,5.075,5.075,0,0,1-.919.721c-.138.076-.42-.038-.593-.139-.076-.044-.1-.3-.047-.414a1.615,1.615,0,0,1,.42-.557c.789-.637,1.595-1.252,2.4-1.869.29-.224.593-.435.923-.668-6.734-5.449-14.854-6.567-22.152-2.09a40.1,40.1,0,0,1,3.255,9.618l.841.1c-.753.687-1.818.46-2.653.909a33.694,33.694,0,0,0-2.079-8.19c-.441-.995-.9-1.983-1.4-3.095a14.529,14.529,0,0,1,1.734-1.207,25.08,25.08,0,0,1,8.991-2.612,17.724,17.724,0,0,1,9.154,1.711,34.581,34.581,0,0,1,11.825,8.792,29.821,29.821,0,0,1,4.622,6.495c-.544-.3-1.088-.586-1.615-.9C404.846,260.328,403.8,259.7,402.75,259.075Z" transform="translate(-251.214 -223.223)"/><path class="aa" d="M351.347,285.769c2.6-.544,5.574,2.369,5.94,4.973.043.309.014.628.053.938a6.349,6.349,0,0,0,1.948,4.354c1.8,1.575,1.81,3.7,1.216,5.828a3.629,3.629,0,0,1-3.7,2.286.961.961,0,0,1-.819-1.365,6.648,6.648,0,0,1,1.136-1.463,1.908,1.908,0,0,0,.3-2.562,8.034,8.034,0,0,0-1.288-1.651,4.942,4.942,0,0,1-1.612-4,5.8,5.8,0,0,0-.995-3.549,3.276,3.276,0,0,0-1.2-1.06c-1.741-.9-3.14-.2-3.45,1.712a18.367,18.367,0,0,0-.075,2.111.84.84,0,0,1-.613.888.967.967,0,0,1-1.211-.435,4.312,4.312,0,0,1-.474-1.306,5.611,5.611,0,0,1,1.306-4.376,3.732,3.732,0,0,1,3.535-1.325Z" transform="translate(-256.709 -214.129)"/><path class="ac" d="M392.038,280.271c-.248-.074-.7-.2-1.144-.349a94.2,94.2,0,0,1-11.967-5.491,5.128,5.128,0,0,1-1.154-.8,1.8,1.8,0,0,1-.47-2.328,1.869,1.869,0,0,1,2.269-.721,5.611,5.611,0,0,1,.871.362q5.52,2.9,11.031,5.827a12.985,12.985,0,0,1,1.784,1.134,1.387,1.387,0,0,1,.559,1.655C393.592,280.123,393.039,280.384,392.038,280.271Z" transform="translate(-249.91 -217.518)"/><path class="aa" d="M385.094,303.809c1.1,2.033,2.464,3.779,4.815,4.44a8.151,8.151,0,0,0,3.942.012,11.3,11.3,0,0,1,1.135-.26c1.017-.109,1.656.285,1.817,1.058a1.677,1.677,0,0,1-1.153,2.213,10.259,10.259,0,0,1-5.769.258,8.563,8.563,0,0,1-6.3-5.09c-.163-.354-.381-.68-.62-1.1l-1.793-.355a2.3,2.3,0,0,1-.31-.591,2.237,2.237,0,0,1,.689-2.127,5.544,5.544,0,0,1,2.694-1.784,1.386,1.386,0,0,1,1.682,1.819A9.8,9.8,0,0,1,385.094,303.809Z" transform="translate(-249.077 -210.855)"/><path class="ac" d="M388.853,284.626a18.136,18.136,0,0,1-.753,2.887,3.459,3.459,0,0,1-6.493-.326,7.8,7.8,0,0,1,.306-5.527,3.222,3.222,0,0,1,3.167-2.033,3.54,3.54,0,0,1,3.21,2.386C388.548,282.819,388.655,283.68,388.853,284.626Z" transform="translate(-248.981 -215.482)"/><path class="aa" d="M403.892,299.2a4.857,4.857,0,0,1-1.314,4.136,9.091,9.091,0,0,1-4.555,2.74,1.493,1.493,0,0,1-1.321-.233,1.775,1.775,0,0,1,.156-3.1,13.568,13.568,0,0,1,1.966-.742c2.047-.762,2.455-2.126,2.08-3.612-.588-2.337-1.073-4.7-1.6-7.054a6.287,6.287,0,0,1-.12-.689c-.078-.729.157-1.213.64-1.343a1.449,1.449,0,0,1,1.673.469,6.359,6.359,0,0,1,.659,1.241A28.791,28.791,0,0,1,403.892,299.2Z" transform="translate(-245.731 -213.348)"/><path class="ac" d="M410.624,285.556a4.251,4.251,0,0,1-1.476,3.562,2.63,2.63,0,0,1-3.918-.318,4.164,4.164,0,0,1-.838-1.888,11.833,11.833,0,0,1,.036-3.252,3.148,3.148,0,0,1,2.987-2.806,3.283,3.283,0,0,1,2.939,2.624,15.77,15.77,0,0,1,.271,2.079Z" transform="translate(-243.859 -215.207)"/><path class="al" d="M368.075,272.386a44.791,44.791,0,0,1-12.191,2.219c-.783.019-1.567.007-2.349-.027a2.92,2.92,0,0,1-2.036-.71l.066-1.088c1.546-.126,3.09-.3,4.638-.369a43.533,43.533,0,0,0,11.193-2.13c.366-.115.746-.182,1.12-.271C368.345,270.8,368.7,271.682,368.075,272.386Z" transform="translate(-255.59 -217.615)"/><path class="af" d="M418.294,265.258c.278,1.314-.581,2.058-1.482,2.65-1.415.93-2.917,1.723-4.415,2.593l-1.678-.917a12.657,12.657,0,0,1-3.569-3.763l1.586.374A13.7,13.7,0,0,0,418.294,265.258Z" transform="translate(-243.223 -218.671)"/><path class="al" d="M418.657,265.676a13.7,13.7,0,0,1-9.558.937c-.529-.123-1.057-.249-1.586-.374a4.463,4.463,0,0,1-2-2.864c1.476.5,2.933,1.074,4.433,1.49a11.773,11.773,0,0,0,7.619-.34,3.1,3.1,0,0,1,.665-.218c.615-.089.81.327.919.824l-.475.578Z" transform="translate(-243.586 -219.09)"/><path class="al" d="M404.743,262.951l.923.506a.853.853,0,0,1-.923-.506Z" transform="translate(-243.758 -219.184)"/><path class="af" d="M416.284,265.388l.475-.578Z" transform="translate(-241.194 -218.772)"/><path class="w" d="M351.314,716.275c-1.272-.256-2.51-.429-3.7-.762a9.92,9.92,0,0,0-5.088-.046c-1.287.311-2.568.644-3.852.964a3.85,3.85,0,0,1-4.523-3.048,4.341,4.341,0,0,1,1.731-4.354,17.607,17.607,0,0,1,3.2-1.932,16.425,16.425,0,0,1,12.774-.224,7.42,7.42,0,0,1,4.107,3.664c.871,1.768.688,4.231-1.7,5.084A23.206,23.206,0,0,1,351.314,716.275Z" transform="translate(-259.459 -120.808)"/><path class="ai" d="M386.312,360.627,386.3,363.4a14.643,14.643,0,0,1-4.1.528,18.386,18.386,0,0,1-4.331-.519l.183-4.19a1.4,1.4,0,0,1,.457-.01,11.381,11.381,0,0,0,7.6-.489Z" transform="translate(-249.73 -197.903)"/><path class="ad" d="M378.826,362.563a18.38,18.38,0,0,0,4.331.519,14.644,14.644,0,0,0,4.1-.528,7.752,7.752,0,0,1,.235,1.136c.375,6.277.724,12.556,1.106,18.831.391,6.433.814,12.864,1.22,19.3q.268,4.236.517,8.473c.384,6.592.742,13.184,1.145,19.774.538,8.786,1.123,17.569,1.662,26.355.452,7.374.941,14.748,1.265,22.128a20.135,20.135,0,0,1-1.723,9.418c-1.742,3.78-3.36,7.619-5.071,11.409a9.819,9.819,0,0,1-1.338,2.2,1.472,1.472,0,0,1-2.417-.16,11.727,11.727,0,0,1-.708-1.223L376.1,487.661a18.814,18.814,0,0,1-2.454-10.856c.3-4.232.448-8.477.635-12.717.231-5.262.416-10.525.653-15.783q.587-13.074,1.208-26.146.266-5.769.515-11.543.579-13.664,1.151-27.329.435-10.014.908-20.028A5.275,5.275,0,0,1,378.826,362.563Z" transform="translate(-250.682 -197.052)"/><path class="ae" d="M378.265,255.2c-.192-.342-.494-.626-.449-.836a10.283,10.283,0,0,1,5.76-7.51c.128-.063.382.133.69.253-.544,1.1-1.648,1.524-2.314,2.358-.731.913-1.451,1.836-2.134,2.784C379.2,253.109,379.283,254.354,378.265,255.2Z" transform="translate(-249.743 -222.764)"/><path class="ae" d="M388.15,248.279c-.1.4-.084.687-.218.8a9.985,9.985,0,0,1-1.157.786,6.976,6.976,0,0,0-2.682,2.876,9.531,9.531,0,0,1-.544.919c-.67.07-.863-.235-.728-.68a5.729,5.729,0,0,1,1.681-2.772,20.811,20.811,0,0,1,2.461-1.772,3.293,3.293,0,0,1,1.188-.156Z" transform="translate(-248.638 -222.444)"/><path class="al" d="M377.381,247.856c.061.521.2.836.109,1.026a28.378,28.378,0,0,1-1.5,2.587c-.119.181-.505.185-.767.271-.062-.211-.218-.448-.171-.629A5.3,5.3,0,0,1,377.381,247.856Z" transform="translate(-250.359 -222.538)"/></g><path class="r" d="M310.5,315.49l-6.1.4V301.445h6.1Z" transform="translate(-50.29 -47.677)"/><path class="r" d="M299.122,357.585,295.115,437.5l-1.886,4.243-20.745-66.478Z" transform="translate(-43.096 -56.556)"/><path class="am" d="M528.533,728.127c4.762,2.295,9.909,2.525,15.04,2.712,3.032.111,6.072.051,9.105-.05a34.9,34.9,0,0,0,3.913-.587c.453-.067.913-.088,1.37-.129a37.212,37.212,0,0,0,9.515,8.254,24.2,24.2,0,0,0,7.138,2.877c4.026.945,8.06,1.858,12.082,2.826,1.134.273,2.232.691,3.346,1.043-1.159,1.037-2.388,2.008-3.461,3.129a5.663,5.663,0,0,0-1.714,4.457,2.649,2.649,0,0,0,3.655,2.413,9.485,9.485,0,0,0,2.411-1.414,61.857,61.857,0,0,1,7.888-4.977c4.722,2.319,7.133,6.384,8.434,11.257a5.72,5.72,0,0,1,.1,2.1,3.8,3.8,0,0,1-3.958,3.554c-3.283.194-6.568.383-9.855.49-7.123.229-14.247.336-21.374.023a106.525,106.525,0,0,1-13.071-1.343,17.794,17.794,0,0,1-9.95-4.869c-.091-.091-.268-.094-.535-.18a12.047,12.047,0,0,0-.1,2.707c-.1.842-.208,1.684-.307,2.475a6.965,6.965,0,0,1-4.009.762c-4.228.029-8.457-.007-12.686-.035-1.174-.008-2.351-.04-3.521-.123-.851-.06-1.692-.219-2.621-.346a7.875,7.875,0,0,1-.516-1.579c-.474-4.909-1.111-9.8-1.114-14.751a34.374,34.374,0,0,1,1.318-10.675,13.907,13.907,0,0,1,2.144-4.408,4.569,4.569,0,0,0,.953-2.581C528.225,730.142,528.4,729.136,528.533,728.127Z" transform="translate(-311.766 -109.954)"/><path class="an" d="M588.691,745.858a65.207,65.207,0,0,0-8.314,5.246,10,10,0,0,1-2.542,1.49,2.792,2.792,0,0,1-3.852-2.543,5.969,5.969,0,0,1,1.807-4.7c1.131-1.181,2.426-2.206,3.648-3.3C582.649,743.019,585.866,743.96,588.691,745.858Z" transform="translate(-301.468 -107.004)"/></g></g></svg>